%TF.GenerationSoftware,KiCad,Pcbnew,5.1.10-88a1d61d58~88~ubuntu18.04.1*%
%TF.CreationDate,2021-12-11T14:35:36+07:00*%
%TF.ProjectId,AETINA_AN810_120_PIN_CONNECTOR-EXTENDER,41455449-4e41-45f4-914e-3831305f3132,rev?*%
%TF.SameCoordinates,Original*%
%TF.FileFunction,Copper,L1,Top*%
%TF.FilePolarity,Positive*%
%FSLAX46Y46*%
G04 Gerber Fmt 4.6, Leading zero omitted, Abs format (unit mm)*
G04 Created by KiCad (PCBNEW 5.1.10-88a1d61d58~88~ubuntu18.04.1) date 2021-12-11 14:35:36*
%MOMM*%
%LPD*%
G01*
G04 APERTURE LIST*
%TA.AperFunction,SMDPad,CuDef*%
%ADD10R,0.279000X2.270000*%
%TD*%
%TA.AperFunction,SMDPad,CuDef*%
%ADD11R,2.540000X0.430000*%
%TD*%
%TA.AperFunction,SMDPad,CuDef*%
%ADD12R,4.700000X0.430000*%
%TD*%
%TA.AperFunction,ViaPad*%
%ADD13C,0.800000*%
%TD*%
%TA.AperFunction,Conductor*%
%ADD14C,0.200000*%
%TD*%
%TA.AperFunction,Conductor*%
%ADD15C,0.250000*%
%TD*%
%TA.AperFunction,Conductor*%
%ADD16C,0.300000*%
%TD*%
%TA.AperFunction,Conductor*%
%ADD17C,0.254000*%
%TD*%
%TA.AperFunction,Conductor*%
%ADD18C,0.100000*%
%TD*%
G04 APERTURE END LIST*
D10*
%TO.P,J2,01*%
%TO.N,/CSI_A_D0_P*%
X187952900Y-97160000D03*
%TO.P,J2,02*%
%TO.N,/CSI_B_D0_P*%
X187952900Y-102890000D03*
%TO.P,J2,03*%
%TO.N,/CSI_A_D0_N*%
X187452800Y-97160000D03*
%TO.P,J2,04*%
%TO.N,/CSI_B_D0_N*%
X187452800Y-102890000D03*
%TO.P,J2,05*%
%TO.N,GND*%
X186952700Y-97160000D03*
%TO.P,J2,06*%
X186952700Y-102890000D03*
%TO.P,J2,07*%
%TO.N,/CSI_A_CLK_P*%
X186452600Y-97160000D03*
%TO.P,J2,08*%
%TO.N,/CSI_B_CLK_P*%
X186452600Y-102890000D03*
%TO.P,J2,09*%
%TO.N,/CSI_A_CLK_N*%
X185952500Y-97160000D03*
%TO.P,J2,10*%
%TO.N,/CSI_B_CLK_N*%
X185952500Y-102890000D03*
%TO.P,J2,11*%
%TO.N,GND*%
X185452400Y-97160000D03*
%TO.P,J2,12*%
X185452400Y-102890000D03*
%TO.P,J2,13*%
%TO.N,/CSI_A_D1_P*%
X184952300Y-97160000D03*
%TO.P,J2,14*%
%TO.N,/CSI_B_D1_P*%
X184952300Y-102890000D03*
%TO.P,J2,15*%
%TO.N,/CSI_A_D1_N*%
X184452300Y-97160000D03*
%TO.P,J2,16*%
%TO.N,/CSI_B_D1_N*%
X184452300Y-102890000D03*
%TO.P,J2,17*%
%TO.N,GND*%
X183952200Y-97160000D03*
%TO.P,J2,18*%
X183952200Y-102890000D03*
%TO.P,J2,19*%
%TO.N,/CSI_C_D0_P*%
X183452100Y-97160000D03*
%TO.P,J2,20*%
%TO.N,/CSI_D_D0_P*%
X183452100Y-102890000D03*
%TO.P,J2,21*%
%TO.N,/CSI_C_D0_N*%
X182952000Y-97160000D03*
%TO.P,J2,22*%
%TO.N,/CSI_D_D0_N*%
X182952000Y-102890000D03*
%TO.P,J2,23*%
%TO.N,GND*%
X182451800Y-97160000D03*
%TO.P,J2,24*%
X182451800Y-102890000D03*
%TO.P,J2,25*%
%TO.N,/CSI_C_CLK_P*%
X181951700Y-97160000D03*
%TO.P,J2,26*%
%TO.N,/CSI_D_CLK_P*%
X181951700Y-102890000D03*
%TO.P,J2,27*%
%TO.N,/CSI_C_CLK_N*%
X181451600Y-97160000D03*
%TO.P,J2,28*%
%TO.N,/CSI_D_CLK_N*%
X181451600Y-102890000D03*
%TO.P,J2,29*%
%TO.N,GND*%
X180951500Y-97160000D03*
%TO.P,J2,30*%
X180951500Y-102890000D03*
%TO.P,J2,31*%
%TO.N,/CSI_C_D1_P*%
X180451450Y-97160000D03*
%TO.P,J2,32*%
%TO.N,/CSI_D_D1_P*%
X180451450Y-102890000D03*
%TO.P,J2,33*%
%TO.N,/CSI_C_D1_N*%
X179951350Y-97160000D03*
%TO.P,J2,34*%
%TO.N,/CSI_D_D1_N*%
X179951350Y-102890000D03*
%TO.P,J2,35*%
%TO.N,GND*%
X179451250Y-97160000D03*
%TO.P,J2,36*%
X179451250Y-102890000D03*
%TO.P,J2,37*%
%TO.N,/CSI_E_D0_P*%
X178951150Y-97160000D03*
%TO.P,J2,38*%
%TO.N,/CSI_F_D0_P*%
X178951150Y-102890000D03*
%TO.P,J2,39*%
%TO.N,/CSI_E_D0_N*%
X178451050Y-97160000D03*
%TO.P,J2,40*%
%TO.N,/CSI_F_D0_N*%
X178451050Y-102890000D03*
%TO.P,J2,41*%
%TO.N,GND*%
X177950950Y-97160000D03*
%TO.P,J2,42*%
X177950950Y-102890000D03*
%TO.P,J2,43*%
%TO.N,/CSI_E_CLK_P*%
X177450850Y-97160000D03*
%TO.P,J2,44*%
%TO.N,/CSI_F_CLK_P*%
X177450850Y-102890000D03*
%TO.P,J2,45*%
%TO.N,/CSI_E_CLK_N*%
X176950750Y-97160000D03*
%TO.P,J2,46*%
%TO.N,/CSI_F_CLK_N*%
X176950750Y-102890000D03*
%TO.P,J2,47*%
%TO.N,GND*%
X176450650Y-97160000D03*
%TO.P,J2,48*%
X176450650Y-102890000D03*
%TO.P,J2,49*%
%TO.N,/CSI_E_D1_P*%
X175950550Y-97160000D03*
%TO.P,J2,50*%
%TO.N,/CSI_F_D1_P*%
X175950550Y-102890000D03*
%TO.P,J2,51*%
%TO.N,/CSI_E_D1_N*%
X175450450Y-97160000D03*
%TO.P,J2,52*%
%TO.N,/CSI_F_D1_N*%
X175450450Y-102890000D03*
%TO.P,J2,53*%
%TO.N,GND*%
X174950350Y-97160000D03*
%TO.P,J2,54*%
X174950350Y-102890000D03*
%TO.P,J2,55*%
%TO.N,Net-(J2-Pad55)*%
X174450250Y-97160000D03*
%TO.P,J2,56*%
%TO.N,Net-(J2-Pad56)*%
X174450250Y-102890000D03*
%TO.P,J2,57*%
%TO.N,Net-(J2-Pad57)*%
X173950150Y-97160000D03*
%TO.P,J2,58*%
%TO.N,Net-(J2-Pad58)*%
X173950150Y-102890000D03*
%TO.P,J2,59*%
%TO.N,/CAM_UART3_PSNT_L*%
X173450050Y-97160000D03*
%TO.P,J2,60*%
%TO.N,Net-(J2-Pad60)*%
X173450050Y-102890000D03*
%TO.P,J2,61*%
%TO.N,/CAM_UART3_TXD*%
X167949950Y-97160000D03*
%TO.P,J2,62*%
%TO.N,/SPI2_SCK*%
X167949950Y-102890000D03*
%TO.P,J2,63*%
%TO.N,/CAM_UART3_RXD*%
X167449850Y-97160000D03*
%TO.P,J2,64*%
%TO.N,/SPI2_MISO*%
X167449850Y-102890000D03*
%TO.P,J2,65*%
%TO.N,/CAM_UART3_CTS*%
X166949750Y-97160000D03*
%TO.P,J2,66*%
%TO.N,/SPI2_CS1*%
X166949750Y-102890000D03*
%TO.P,J2,67*%
%TO.N,/CAM_UART3_RTS*%
X166449650Y-97160000D03*
%TO.P,J2,68*%
%TO.N,/SPI2_MOSI*%
X166449650Y-102890000D03*
%TO.P,J2,69*%
%TO.N,GND*%
X165949550Y-97160000D03*
%TO.P,J2,70*%
X165949550Y-102890000D03*
%TO.P,J2,71*%
%TO.N,/AO_DMIC_IN_CLK*%
X165449450Y-97160000D03*
%TO.P,J2,72*%
%TO.N,/I2S3_CLK*%
X165449450Y-102890000D03*
%TO.P,J2,73*%
%TO.N,/AO_DMIC_IN_DAT*%
X164949350Y-97160000D03*
%TO.P,J2,74*%
%TO.N,/I2S3_LRCLK*%
X164949350Y-102890000D03*
%TO.P,J2,75*%
%TO.N,/CAM_I2C_SCL*%
X164449250Y-97160000D03*
%TO.P,J2,76*%
%TO.N,/I2S3_SDIN*%
X164449250Y-102890000D03*
%TO.P,J2,77*%
%TO.N,/CAM_I2C_SDA*%
X163949150Y-97160000D03*
%TO.P,J2,78*%
%TO.N,/I2S3_SDOUT*%
X163949150Y-102890000D03*
%TO.P,J2,79*%
%TO.N,GND*%
X163449050Y-97160000D03*
%TO.P,J2,80*%
X163449050Y-102890000D03*
%TO.P,J2,81*%
%TO.N,/AVDD_CAM*%
X162948950Y-97160000D03*
%TO.P,J2,82*%
X162948950Y-102890000D03*
%TO.P,J2,83*%
X162448850Y-97160000D03*
%TO.P,J2,84*%
%TO.N,/VDD_3V3_SLP*%
X162448850Y-102890000D03*
%TO.P,J2,85*%
%TO.N,/CAM_AF_PWDN*%
X161948750Y-97160000D03*
%TO.P,J2,86*%
%TO.N,/CAM_VSYNC*%
X161948750Y-102890000D03*
%TO.P,J2,87*%
%TO.N,/I2C_PM_CLK*%
X161448650Y-97160000D03*
%TO.P,J2,88*%
%TO.N,/CAM1_MCLK*%
X161448650Y-102890000D03*
%TO.P,J2,89*%
%TO.N,/I2C_PM_DAT*%
X160948550Y-97160000D03*
%TO.P,J2,90*%
%TO.N,/CAM1_PWDN*%
X160948550Y-102890000D03*
%TO.P,J2,91*%
%TO.N,/CAM0_MCLK*%
X160448500Y-97160000D03*
%TO.P,J2,92*%
%TO.N,/CAM1_RST_L*%
X160448500Y-102890000D03*
%TO.P,J2,93*%
%TO.N,/CAM0_PWDN*%
X159948400Y-97160000D03*
%TO.P,J2,94*%
%TO.N,/CAM2_MCLK*%
X159948400Y-102890000D03*
%TO.P,J2,95*%
%TO.N,/CAM0_RST_L*%
X159448300Y-97160000D03*
%TO.P,J2,96*%
%TO.N,/CAM2_PWDN*%
X159448300Y-102890000D03*
%TO.P,J2,97*%
%TO.N,/FLASH_EN*%
X158948200Y-97160000D03*
%TO.P,J2,98*%
%TO.N,/CAM2_RST*%
X158948200Y-102890000D03*
%TO.P,J2,99*%
%TO.N,GND*%
X158448000Y-97160000D03*
%TO.P,J2,100*%
X158448000Y-102890000D03*
%TO.P,J2,101*%
%TO.N,/DVDD_CAM_IO_1V2*%
X157947900Y-97160000D03*
%TO.P,J2,102*%
%TO.N,/DVDD_CAM_IO_1V8*%
X157947900Y-102890000D03*
%TO.P,J2,103*%
%TO.N,/FLASH_INHIBIT*%
X157447800Y-97160000D03*
%TO.P,J2,104*%
%TO.N,/TORCH_EN*%
X157447800Y-102890000D03*
%TO.P,J2,105*%
%TO.N,/I2C_GP0_CLK_1V8*%
X156947700Y-97160000D03*
%TO.P,J2,106*%
%TO.N,/FLASH_STROBE*%
X156947700Y-102890000D03*
%TO.P,J2,107*%
%TO.N,/I2C_GP0_DAT_1V8*%
X156447700Y-97160000D03*
%TO.P,J2,108*%
%TO.N,/VDD_3V3_SLP*%
X156447700Y-102890000D03*
%TO.P,J2,109*%
%TO.N,/VDD_5V0_IO_SYS*%
X155947600Y-97160000D03*
%TO.P,J2,110*%
%TO.N,/VDD_3V3_SLP*%
X155947600Y-102890000D03*
%TO.P,J2,111*%
%TO.N,Net-(J2-Pad111)*%
X155447500Y-97160000D03*
%TO.P,J2,112*%
%TO.N,/MOTION_INT_AP_L*%
X155447500Y-102890000D03*
%TO.P,J2,113*%
%TO.N,Net-(J2-Pad113)*%
X154947400Y-97160000D03*
%TO.P,J2,114*%
%TO.N,Net-(J2-Pad114)*%
X154947400Y-102890000D03*
%TO.P,J2,115*%
%TO.N,GND*%
X154447300Y-97160000D03*
%TO.P,J2,116*%
X154447300Y-102890000D03*
%TO.P,J2,117*%
%TO.N,/MDM2AP_READY_1V8*%
X153947200Y-97160000D03*
%TO.P,J2,118*%
%TO.N,/VDD_5V0_IO_SYS*%
X153947200Y-102890000D03*
%TO.P,J2,119*%
%TO.N,/VDD_SYS_EN*%
X153447100Y-97160000D03*
%TO.P,J2,120*%
%TO.N,/VDD_5V0_IO_SYS*%
X153447100Y-102890000D03*
D11*
%TO.P,J2,G1_1*%
%TO.N,GND*%
X188766500Y-100025000D03*
D12*
%TO.P,J2,G1_2*%
X183876500Y-100025000D03*
%TO.P,J2,G1_3*%
X177526500Y-100025000D03*
D11*
%TO.P,J2,G1_4*%
X172636500Y-100025000D03*
%TO.P,J2,G2_1*%
X168763500Y-100025000D03*
D12*
%TO.P,J2,G2_2*%
X163873500Y-100025000D03*
%TO.P,J2,G2_3*%
X157523500Y-100025000D03*
D11*
%TO.P,J2,G2_4*%
X152633500Y-100025000D03*
%TD*%
D13*
%TO.N,GND*%
X170700000Y-98000000D03*
X170700000Y-102000000D03*
X195700000Y-102000000D03*
X195700000Y-98000000D03*
X145700000Y-102000000D03*
X145700000Y-98000000D03*
X183876500Y-100025000D03*
X177526500Y-100025000D03*
X163873500Y-100025000D03*
X157523500Y-100017260D03*
X170739000Y-100025000D03*
X152633500Y-100025000D03*
X188766500Y-100025000D03*
%TO.N,/SPI2_MOSI*%
X169700000Y-107700000D03*
%TO.N,/SPI2_MISO*%
X171700000Y-107700000D03*
%TO.N,/SPI2_SCK*%
X172700000Y-107700000D03*
%TO.N,/VDD_5V0_IO_SYS*%
X154700000Y-94500000D03*
X150700000Y-107700000D03*
%TO.N,/VDD_3V3_SLP*%
X163700000Y-107700000D03*
X152700000Y-107700000D03*
%TO.N,/VDD_SYS_EN*%
X150700000Y-92000000D03*
%TO.N,/MDM2AP_READY_1V8*%
X151700000Y-92000000D03*
%TO.N,/MOTION_INT_AP_L*%
X151700000Y-107700000D03*
%TO.N,/I2C_GP0_DAT_1V8*%
X152700000Y-92000000D03*
%TO.N,/FLASH_STROBE*%
X153700000Y-107700000D03*
%TO.N,/I2C_GP0_CLK_1V8*%
X153700000Y-92000000D03*
%TO.N,/TORCH_EN*%
X154700000Y-107700000D03*
%TO.N,/FLASH_INHIBIT*%
X154700000Y-92000000D03*
%TO.N,/DVDD_CAM_IO_1V8*%
X155700000Y-107700000D03*
%TO.N,/DVDD_CAM_IO_1V2*%
X155700000Y-92000000D03*
%TO.N,/CAM2_RST*%
X156700000Y-107700000D03*
%TO.N,/FLASH_EN*%
X156700000Y-92000000D03*
%TO.N,/CAM2_PWDN*%
X157700000Y-107700000D03*
%TO.N,/CAM0_RST_L*%
X157700000Y-92000000D03*
%TO.N,/CAM2_MCLK*%
X158700000Y-107700000D03*
%TO.N,/CAM0_PWDN*%
X158700000Y-92000000D03*
%TO.N,/CAM1_RST_L*%
X159700000Y-107700000D03*
%TO.N,/CAM0_MCLK*%
X159700000Y-92000000D03*
%TO.N,/CAM1_PWDN*%
X160700000Y-107700000D03*
%TO.N,/I2C_PM_DAT*%
X160700000Y-92000000D03*
%TO.N,/CAM1_MCLK*%
X161700000Y-107700000D03*
%TO.N,/I2C_PM_CLK*%
X161700000Y-92000000D03*
%TO.N,/CAM_VSYNC*%
X162700000Y-107700000D03*
%TO.N,/CAM_AF_PWDN*%
X162700000Y-92000000D03*
%TO.N,/AVDD_CAM*%
X163700000Y-92000000D03*
X164700000Y-107700000D03*
%TO.N,/I2S3_SDOUT*%
X165700000Y-107700000D03*
%TO.N,/CAM_I2C_SDA*%
X164700000Y-92000000D03*
%TO.N,/I2S3_SDIN*%
X166700000Y-107700000D03*
%TO.N,/CAM_I2C_SCL*%
X165700000Y-92000000D03*
%TO.N,/I2S3_LRCLK*%
X167700000Y-107700000D03*
%TO.N,/AO_DMIC_IN_DAT*%
X166700000Y-92000000D03*
%TO.N,/I2S3_CLK*%
X168700000Y-107700000D03*
%TO.N,/AO_DMIC_IN_CLK*%
X167700000Y-92000000D03*
%TO.N,/CAM_UART3_RTS*%
X168700000Y-92000000D03*
%TO.N,/SPI2_CS1*%
X170700000Y-107700000D03*
%TO.N,/CAM_UART3_CTS*%
X169700000Y-92000000D03*
%TO.N,/CAM_UART3_RXD*%
X170700000Y-92000000D03*
%TO.N,/CAM_UART3_TXD*%
X171700000Y-92000000D03*
%TO.N,/CAM_UART3_PSNT_L*%
X172700000Y-92000000D03*
%TO.N,/CSI_F_D1_P*%
X174700000Y-107700000D03*
%TO.N,/CSI_E_D1_N*%
X173700000Y-92000000D03*
%TO.N,/CSI_E_D1_P*%
X174700000Y-92000000D03*
%TO.N,/CSI_F_CLK_N*%
X175700000Y-107700000D03*
%TO.N,/CSI_E_CLK_N*%
X175700000Y-92000000D03*
%TO.N,/CSI_F_CLK_P*%
X176700000Y-107700000D03*
%TO.N,/CSI_E_CLK_P*%
X176700000Y-92000000D03*
%TO.N,/CSI_F_D0_N*%
X177700000Y-107700000D03*
%TO.N,/CSI_E_D0_N*%
X177700000Y-92000000D03*
%TO.N,/CSI_F_D0_P*%
X178700000Y-107700000D03*
%TO.N,/CSI_E_D0_P*%
X178700000Y-92000000D03*
%TO.N,/CSI_D_D1_N*%
X179700000Y-107700000D03*
%TO.N,/CSI_C_D1_N*%
X179700000Y-92000000D03*
%TO.N,/CSI_D_D1_P*%
X180700000Y-107700000D03*
%TO.N,/CSI_C_D1_P*%
X180700000Y-92000000D03*
%TO.N,/CSI_D_CLK_N*%
X181700000Y-107700000D03*
%TO.N,/CSI_C_CLK_N*%
X181700000Y-92000000D03*
%TO.N,/CSI_D_CLK_P*%
X182700000Y-107700000D03*
%TO.N,/CSI_C_CLK_P*%
X182700000Y-92000000D03*
%TO.N,/CSI_D_D0_N*%
X183700000Y-107700000D03*
%TO.N,/CSI_C_D0_N*%
X183700000Y-92000000D03*
%TO.N,/CSI_D_D0_P*%
X184700000Y-107700000D03*
%TO.N,/CSI_C_D0_P*%
X184700000Y-92000000D03*
%TO.N,/CSI_B_D1_N*%
X185700000Y-107700000D03*
%TO.N,/CSI_A_D1_N*%
X185700000Y-92000000D03*
%TO.N,/CSI_B_D1_P*%
X186700000Y-107700000D03*
%TO.N,/CSI_A_D1_P*%
X186700000Y-92000000D03*
%TO.N,/CSI_B_CLK_N*%
X187700000Y-107700000D03*
%TO.N,/CSI_A_CLK_N*%
X187700000Y-92000000D03*
%TO.N,/CSI_B_CLK_P*%
X188700000Y-107700000D03*
%TO.N,/CSI_A_CLK_P*%
X188700000Y-92000000D03*
%TO.N,/CSI_B_D0_N*%
X189700000Y-107700000D03*
%TO.N,/CSI_A_D0_N*%
X189700000Y-92000000D03*
%TO.N,/CSI_B_D0_P*%
X190700000Y-107700000D03*
%TO.N,/CSI_A_D0_P*%
X190700000Y-92000000D03*
%TO.N,/CSI_F_D1_N*%
X173700000Y-107700000D03*
%TD*%
D14*
%TO.N,GND*%
X156967800Y-99974300D02*
X157043500Y-100050000D01*
X181971800Y-99068200D02*
X181960000Y-99080000D01*
X175970650Y-99079350D02*
X175970000Y-99080000D01*
D15*
X186470800Y-99078540D02*
X186469340Y-99080000D01*
X177950950Y-99062990D02*
X177967960Y-99080000D01*
X177950950Y-97160000D02*
X177950950Y-99062990D01*
X177967960Y-99080000D02*
X177467580Y-99080000D01*
X174950350Y-97289850D02*
X174949800Y-97290400D01*
X174949800Y-97290400D02*
X174949800Y-99080000D01*
X174950350Y-97160000D02*
X174950350Y-97289850D01*
X176450650Y-99022510D02*
X176393160Y-99080000D01*
X176450650Y-97160000D02*
X176450650Y-99022510D01*
X177467580Y-99080000D02*
X176393160Y-99080000D01*
X176393160Y-99080000D02*
X174949800Y-99080000D01*
X172636500Y-99082540D02*
X172636500Y-100025000D01*
X174949800Y-99080000D02*
X172639040Y-99080000D01*
X172639040Y-99080000D02*
X172636500Y-99082540D01*
X177526500Y-100025000D02*
X177526500Y-100025000D01*
X172636500Y-100025000D02*
X170739000Y-100025000D01*
X165949550Y-98545000D02*
X165950900Y-98546350D01*
X165949550Y-97160000D02*
X165949550Y-98545000D01*
X168732250Y-99044810D02*
X168763500Y-99076060D01*
X168763500Y-99076060D02*
X168763500Y-100025000D01*
X165949550Y-98545000D02*
X165949550Y-99030870D01*
X165949550Y-99030870D02*
X165935610Y-99044810D01*
X165935610Y-99044810D02*
X168732250Y-99044810D01*
X186952700Y-102657720D02*
X186946540Y-102651560D01*
X186952700Y-102890000D02*
X186952700Y-102657720D01*
X186952700Y-102175500D02*
X186956700Y-102171500D01*
X186952700Y-102890000D02*
X186952700Y-102175500D01*
X186956700Y-102171500D02*
X186956700Y-100804980D01*
X186956700Y-100804980D02*
X188653420Y-100804980D01*
X188766500Y-100691900D02*
X188766500Y-100025000D01*
X183876500Y-99137920D02*
X183934420Y-99080000D01*
X183876500Y-100025000D02*
X183876500Y-100025000D01*
X183934420Y-99080000D02*
X184952960Y-99080000D01*
X185452400Y-102890000D02*
X185452400Y-100827220D01*
X185452400Y-100827220D02*
X185430160Y-100804980D01*
X186956700Y-100804980D02*
X185430160Y-100804980D01*
X183954420Y-102349300D02*
X183954420Y-100804980D01*
X183952200Y-102351520D02*
X183954420Y-102349300D01*
X183952200Y-102890000D02*
X183952200Y-102351520D01*
X185430160Y-100804980D02*
X183954420Y-100804980D01*
X182451800Y-100882240D02*
X182374540Y-100804980D01*
X182451800Y-102890000D02*
X182451800Y-100882240D01*
X183954420Y-100804980D02*
X182374540Y-100804980D01*
X180951500Y-102890000D02*
X180951500Y-100831020D01*
X180951500Y-100831020D02*
X180977540Y-100804980D01*
X182374540Y-100804980D02*
X180977540Y-100804980D01*
X179451250Y-100870770D02*
X179517040Y-100804980D01*
X179451250Y-102890000D02*
X179451250Y-100870770D01*
X180977540Y-100804980D02*
X179517040Y-100804980D01*
X177950950Y-100826390D02*
X177929540Y-100804980D01*
X177950950Y-102890000D02*
X177950950Y-100826390D01*
X179517040Y-100804980D02*
X177929540Y-100804980D01*
X174950350Y-100820450D02*
X174934880Y-100804980D01*
X174950350Y-102890000D02*
X174950350Y-100820450D01*
X165949550Y-100869830D02*
X166014400Y-100804980D01*
X165949550Y-102890000D02*
X165949550Y-100869830D01*
X174934880Y-100804980D02*
X166014400Y-100804980D01*
X163449050Y-100886210D02*
X163530280Y-100804980D01*
X163449050Y-102890000D02*
X163449050Y-100886210D01*
X163449050Y-97160000D02*
X163449050Y-98938030D01*
X186952700Y-97514220D02*
X186951620Y-97515300D01*
X186952700Y-97160000D02*
X186952700Y-97514220D01*
X186951620Y-97515300D02*
X186951620Y-99075240D01*
X186948320Y-99078540D02*
X186470800Y-99078540D01*
X186951620Y-99075240D02*
X186948320Y-99078540D01*
X185452400Y-99079060D02*
X185453340Y-99080000D01*
X185452400Y-97160000D02*
X185452400Y-99079060D01*
X184952960Y-99080000D02*
X185453340Y-99080000D01*
X185453340Y-99080000D02*
X186469340Y-99080000D01*
X183952200Y-99062220D02*
X183876500Y-99137920D01*
X183952200Y-97160000D02*
X183952200Y-99062220D01*
X182451800Y-99053440D02*
X182478360Y-99080000D01*
X182451800Y-97160000D02*
X182451800Y-99053440D01*
X181960000Y-99080000D02*
X182478360Y-99080000D01*
X182478360Y-99080000D02*
X183934420Y-99080000D01*
X179451250Y-99026730D02*
X179397980Y-99080000D01*
X179451250Y-97160000D02*
X179451250Y-99026730D01*
X179397980Y-99080000D02*
X177967960Y-99080000D01*
X180951500Y-99013640D02*
X181017860Y-99080000D01*
X180951500Y-97160000D02*
X180951500Y-99013640D01*
X181960000Y-99080000D02*
X181017860Y-99080000D01*
X181017860Y-99080000D02*
X179397980Y-99080000D01*
X186948320Y-99078540D02*
X188585600Y-99078540D01*
X188585600Y-99078540D02*
X188586360Y-99077780D01*
X188586360Y-99077780D02*
X188765180Y-99077780D01*
X188766500Y-99079100D02*
X188766500Y-100025000D01*
X188765180Y-99077780D02*
X188766500Y-99079100D01*
X188766500Y-100691900D02*
X188653420Y-100804980D01*
X152633500Y-99187180D02*
X152633500Y-100025000D01*
X152775870Y-99044810D02*
X152633500Y-99187180D01*
X163873500Y-100794500D02*
X163863020Y-100804980D01*
X163873500Y-100025000D02*
X163873500Y-100025000D01*
X166014400Y-100804980D02*
X163863020Y-100804980D01*
X163863020Y-100804980D02*
X163530280Y-100804980D01*
X154447300Y-101254620D02*
X154447300Y-102890000D01*
X154896940Y-100804980D02*
X154447300Y-101254620D01*
X158448000Y-102890000D02*
X158448000Y-100825040D01*
X154447300Y-98617980D02*
X154020470Y-99044810D01*
X152775870Y-99044810D02*
X154020470Y-99044810D01*
X154447300Y-98564640D02*
X154447300Y-98617980D01*
X154447300Y-97160000D02*
X154447300Y-98564640D01*
X157523500Y-99118100D02*
X157523500Y-100017260D01*
X158448000Y-97160000D02*
X158448000Y-98966280D01*
X157675320Y-98966280D02*
X157523500Y-99118100D01*
X158448000Y-98966280D02*
X157675320Y-98966280D01*
X163555830Y-99044810D02*
X163449050Y-98938030D01*
X165935610Y-99044810D02*
X163555830Y-99044810D01*
X176450650Y-102584910D02*
X176453800Y-102581760D01*
X176450650Y-102890000D02*
X176450650Y-102584910D01*
X177929540Y-100804980D02*
X176453800Y-100804980D01*
X176453800Y-102581760D02*
X176453800Y-100804980D01*
X176453800Y-100804980D02*
X174934880Y-100804980D01*
X158427940Y-100804980D02*
X158448000Y-100825040D01*
X157523500Y-100789420D02*
X157507940Y-100804980D01*
X157523500Y-100025000D02*
X157523500Y-100789420D01*
X154896940Y-100804980D02*
X157507940Y-100804980D01*
X157507940Y-100804980D02*
X158427940Y-100804980D01*
X185452400Y-103674560D02*
X185445400Y-103681560D01*
X185452400Y-102890000D02*
X185452400Y-103674560D01*
X183876500Y-100025000D02*
X183876500Y-99137920D01*
X177526500Y-100025000D02*
X172636500Y-100025000D01*
X163873500Y-100025000D02*
X163873500Y-100794500D01*
X157523500Y-100017260D02*
X157523500Y-100025000D01*
X170739000Y-100025000D02*
X168763500Y-100025000D01*
X152633500Y-100025000D02*
X152633500Y-100025000D01*
X188766500Y-100025000D02*
X188766500Y-100025000D01*
D14*
%TO.N,/SPI2_MOSI*%
X168197400Y-106197400D02*
X169700000Y-107700000D01*
X167132722Y-106197400D02*
X168197400Y-106197400D01*
X166449650Y-105514328D02*
X167132722Y-106197400D01*
X166449650Y-102890000D02*
X166449650Y-105514328D01*
%TO.N,/SPI2_MISO*%
X169911035Y-106599989D02*
X170599989Y-106599989D01*
X167449850Y-102890000D02*
X167449850Y-105181750D01*
X167665480Y-105397380D02*
X168528778Y-105397380D01*
X170599989Y-106599989D02*
X171700000Y-107700000D01*
X167449850Y-105181750D02*
X167665480Y-105397380D01*
X169090792Y-105779746D02*
X169911035Y-106599989D01*
X168528778Y-105397380D02*
X168911144Y-105779746D01*
X168911144Y-105779746D02*
X169090792Y-105779746D01*
%TO.N,/SPI2_SCK*%
X171199979Y-106199979D02*
X172700000Y-107700000D01*
X170076723Y-106199979D02*
X171199979Y-106199979D01*
X169256481Y-105379736D02*
X170076723Y-106199979D01*
X167949950Y-102890000D02*
X167949950Y-104869050D01*
X167949950Y-104869050D02*
X168078270Y-104997370D01*
X168078270Y-104997370D02*
X168768934Y-104997370D01*
X168768934Y-104997370D02*
X169151300Y-105379736D01*
X169151300Y-105379736D02*
X169256481Y-105379736D01*
D15*
%TO.N,/VDD_5V0_IO_SYS*%
X153947200Y-102890000D02*
X153947200Y-100835120D01*
X153947200Y-100835120D02*
X154477720Y-100304600D01*
X154477720Y-100304600D02*
X154477720Y-99397820D01*
X154477720Y-99397820D02*
X154901900Y-98973640D01*
X154901900Y-98973640D02*
X155793440Y-98973640D01*
X155947600Y-98819480D02*
X155947600Y-97160000D01*
X155793440Y-98973640D02*
X155947600Y-98819480D01*
X153447100Y-102890000D02*
X153447100Y-104952900D01*
X153947200Y-102890000D02*
X153947200Y-104835620D01*
X153947200Y-104835620D02*
X153829920Y-104952900D01*
X155947600Y-97160000D02*
X155947600Y-95185720D01*
X155261880Y-94500000D02*
X154700000Y-94500000D01*
X155947600Y-95185720D02*
X155261880Y-94500000D01*
X153829920Y-104952900D02*
X152953620Y-104952900D01*
X150700000Y-107206520D02*
X150700000Y-107700000D01*
X152953620Y-104952900D02*
X150700000Y-107206520D01*
%TO.N,/VDD_3V3_SLP*%
X155947600Y-102890000D02*
X155947600Y-104452400D01*
X152700000Y-108265685D02*
X152978675Y-108544360D01*
X152700000Y-107700000D02*
X152700000Y-108265685D01*
X152978675Y-108544360D02*
X163408360Y-108544360D01*
X163700000Y-108252720D02*
X163700000Y-107700000D01*
X163408360Y-108544360D02*
X163700000Y-108252720D01*
X155947600Y-104452400D02*
X156281140Y-104452400D01*
X156447700Y-104285840D02*
X156447700Y-102890000D01*
X156281140Y-104452400D02*
X156447700Y-104285840D01*
X163700000Y-107529220D02*
X162448850Y-106278070D01*
X163700000Y-107700000D02*
X163700000Y-107529220D01*
X162448850Y-102890000D02*
X162448850Y-106278070D01*
X154368100Y-106031900D02*
X153647540Y-106031900D01*
X155947600Y-104452400D02*
X154368100Y-106031900D01*
X152700000Y-106979440D02*
X152700000Y-107700000D01*
X153647540Y-106031900D02*
X152700000Y-106979440D01*
D14*
%TO.N,/VDD_SYS_EN*%
X153447100Y-94747100D02*
X150700000Y-92000000D01*
X153447100Y-97160000D02*
X153447100Y-94747100D01*
%TO.N,/MDM2AP_READY_1V8*%
X151700000Y-92434302D02*
X151700000Y-92000000D01*
X153947200Y-97160000D02*
X153947200Y-94681502D01*
X153947200Y-94681502D02*
X151700000Y-92434302D01*
%TO.N,/MOTION_INT_AP_L*%
X155447500Y-102890000D02*
X155447500Y-104225000D01*
X154194850Y-105477650D02*
X153404230Y-105477650D01*
X155447500Y-104225000D02*
X154194850Y-105477650D01*
X151700000Y-107181880D02*
X151700000Y-107700000D01*
X153404230Y-105477650D02*
X151700000Y-107181880D01*
%TO.N,/I2C_GP0_DAT_1V8*%
X156447700Y-97160000D02*
X156447700Y-94738481D01*
X154200021Y-93500021D02*
X152700000Y-92000000D01*
X155209240Y-93500021D02*
X154200021Y-93500021D01*
X156447700Y-94738481D02*
X155209240Y-93500021D01*
%TO.N,/FLASH_STROBE*%
X153700000Y-107663998D02*
X153700000Y-107700000D01*
X156947700Y-104416298D02*
X153700000Y-107663998D01*
X156947700Y-102890000D02*
X156947700Y-104416298D01*
%TO.N,/I2C_GP0_CLK_1V8*%
X155624651Y-93100011D02*
X154800011Y-93100011D01*
X154800011Y-93100011D02*
X153700000Y-92000000D01*
X156947700Y-94423060D02*
X155624651Y-93100011D01*
X156947700Y-97160000D02*
X156947700Y-94423060D01*
%TO.N,/TORCH_EN*%
X157447800Y-104952200D02*
X154700000Y-107700000D01*
X157447800Y-102890000D02*
X157447800Y-104952200D01*
%TO.N,/FLASH_INHIBIT*%
X155798301Y-92700001D02*
X155400001Y-92700001D01*
X155400001Y-92700001D02*
X154700000Y-92000000D01*
X157447800Y-94349500D02*
X155798301Y-92700001D01*
X157447800Y-97160000D02*
X157447800Y-94349500D01*
%TO.N,/DVDD_CAM_IO_1V8*%
X157947900Y-105452100D02*
X155700000Y-107700000D01*
X157947900Y-102890000D02*
X157947900Y-105452100D01*
%TO.N,/DVDD_CAM_IO_1V2*%
X155700000Y-92036002D02*
X155700000Y-92000000D01*
X157947900Y-94283902D02*
X155700000Y-92036002D01*
X157947900Y-97160000D02*
X157947900Y-94283902D01*
%TO.N,/CAM2_RST*%
X158948200Y-105451800D02*
X156700000Y-107700000D01*
X158948200Y-102890000D02*
X158948200Y-105451800D01*
%TO.N,/FLASH_EN*%
X156700000Y-92036002D02*
X156700000Y-92000000D01*
X158948200Y-94284202D02*
X156700000Y-92036002D01*
X158948200Y-97160000D02*
X158948200Y-94284202D01*
%TO.N,/CAM2_PWDN*%
X159448300Y-105951700D02*
X157700000Y-107700000D01*
X159448300Y-102890000D02*
X159448300Y-105951700D01*
%TO.N,/CAM0_RST_L*%
X159448300Y-93748300D02*
X157700000Y-92000000D01*
X159448300Y-97160000D02*
X159448300Y-93748300D01*
%TO.N,/CAM2_MCLK*%
X159948400Y-106451600D02*
X158700000Y-107700000D01*
X159948400Y-102890000D02*
X159948400Y-106451600D01*
%TO.N,/CAM0_PWDN*%
X159948400Y-93248400D02*
X158700000Y-92000000D01*
X159948400Y-97160000D02*
X159948400Y-93248400D01*
%TO.N,/CAM1_RST_L*%
X160448500Y-106951500D02*
X159700000Y-107700000D01*
X160448500Y-102890000D02*
X160448500Y-106951500D01*
%TO.N,/CAM0_MCLK*%
X160448500Y-92748500D02*
X159700000Y-92000000D01*
X160448500Y-97160000D02*
X160448500Y-92748500D01*
%TO.N,/CAM1_PWDN*%
X160948550Y-107451450D02*
X160700000Y-107700000D01*
X160948550Y-102890000D02*
X160948550Y-107451450D01*
%TO.N,/I2C_PM_DAT*%
X160948550Y-92248550D02*
X160700000Y-92000000D01*
X160948550Y-97160000D02*
X160948550Y-92248550D01*
%TO.N,/CAM1_MCLK*%
X161448650Y-107448650D02*
X161700000Y-107700000D01*
X161448650Y-102890000D02*
X161448650Y-107448650D01*
%TO.N,/I2C_PM_CLK*%
X161468750Y-97185000D02*
X161468750Y-96891250D01*
X161448650Y-92251350D02*
X161700000Y-92000000D01*
X161448650Y-97160000D02*
X161448650Y-92251350D01*
%TO.N,/CAM_VSYNC*%
X161948750Y-106948750D02*
X162700000Y-107700000D01*
X161948750Y-102890000D02*
X161948750Y-106948750D01*
%TO.N,/CAM_AF_PWDN*%
X161948750Y-92751250D02*
X162700000Y-92000000D01*
X161948750Y-97160000D02*
X161948750Y-92751250D01*
D15*
%TO.N,/AVDD_CAM*%
X162948950Y-101414250D02*
X162948950Y-102890000D01*
X162674960Y-101140260D02*
X162948950Y-101414250D01*
X162448850Y-97160000D02*
X162448850Y-98719030D01*
X162143440Y-99024440D02*
X161109660Y-99024440D01*
X162448850Y-98719030D02*
X162143440Y-99024440D01*
X161109660Y-99024440D02*
X160822640Y-99311460D01*
X160822640Y-100794820D02*
X161168080Y-101140260D01*
X161168080Y-101140260D02*
X162674960Y-101140260D01*
X160822640Y-99311460D02*
X160822640Y-100794820D01*
X162448850Y-98719030D02*
X162942930Y-98719030D01*
X162948950Y-98713010D02*
X162948950Y-97160000D01*
X162942930Y-98719030D02*
X162948950Y-98713010D01*
D14*
X162948950Y-105948950D02*
X164700000Y-107700000D01*
X162948950Y-102890000D02*
X162948950Y-105948950D01*
D15*
X163700000Y-92073002D02*
X163700000Y-92000000D01*
X162948950Y-92824052D02*
X163700000Y-92073002D01*
X162448850Y-97160000D02*
X162448850Y-95086830D01*
X162451110Y-95084570D02*
X162948950Y-95084570D01*
X162448850Y-95086830D02*
X162451110Y-95084570D01*
X162948950Y-97160000D02*
X162948950Y-95084570D01*
X162948950Y-95084570D02*
X162948950Y-92824052D01*
D14*
%TO.N,/I2S3_SDOUT*%
X163949150Y-105949150D02*
X165700000Y-107700000D01*
X163949150Y-102890000D02*
X163949150Y-105949150D01*
%TO.N,/CAM_I2C_SDA*%
X163949150Y-92750850D02*
X164700000Y-92000000D01*
X163949150Y-97160000D02*
X163949150Y-92750850D01*
%TO.N,/I2S3_SDIN*%
X165999999Y-106999999D02*
X166004680Y-107004680D01*
X165724799Y-106999999D02*
X165999999Y-106999999D01*
X166004680Y-107004680D02*
X166700000Y-107700000D01*
X164449250Y-105724450D02*
X165724799Y-106999999D01*
X164449250Y-102890000D02*
X164449250Y-105724450D01*
%TO.N,/CAM_I2C_SCL*%
X164449250Y-93250750D02*
X165700000Y-92000000D01*
X164449250Y-97160000D02*
X164449250Y-93250750D01*
%TO.N,/I2S3_LRCLK*%
X166999999Y-106999999D02*
X167700000Y-107700000D01*
X166565698Y-106999999D02*
X166999999Y-106999999D01*
X166165688Y-106599989D02*
X166565698Y-106999999D01*
X165890486Y-106599988D02*
X166165688Y-106599989D01*
X164949350Y-102890000D02*
X164949350Y-105658852D01*
X164949350Y-105658852D02*
X165890486Y-106599988D01*
%TO.N,/AO_DMIC_IN_DAT*%
X164949350Y-93750650D02*
X166700000Y-92000000D01*
X164949350Y-97160000D02*
X164949350Y-93750650D01*
%TO.N,/I2S3_CLK*%
X167599989Y-106599989D02*
X168700000Y-107700000D01*
X166731387Y-106599989D02*
X167599989Y-106599989D01*
X166283359Y-106151961D02*
X166731387Y-106599989D01*
X166008157Y-106151961D02*
X166283359Y-106151961D01*
X165449450Y-105593254D02*
X166008157Y-106151961D01*
X165449450Y-102890000D02*
X165449450Y-105593254D01*
%TO.N,/AO_DMIC_IN_CLK*%
X165449450Y-94250550D02*
X167700000Y-92000000D01*
X165449450Y-97160000D02*
X165449450Y-94250550D01*
%TO.N,/CAM_UART3_RTS*%
X166469750Y-96540250D02*
X166460000Y-96530500D01*
X166469750Y-97185000D02*
X166469750Y-96540250D01*
X166449650Y-94250350D02*
X168700000Y-92000000D01*
X166449650Y-97160000D02*
X166449650Y-94250350D01*
%TO.N,/SPI2_CS1*%
X169999999Y-106999999D02*
X170700000Y-107700000D01*
X169745347Y-106999999D02*
X169999999Y-106999999D01*
X168745454Y-106179756D02*
X168363089Y-105797390D01*
X168925104Y-106179756D02*
X168745454Y-106179756D01*
X168925104Y-106179756D02*
X169745347Y-106999999D01*
X168363089Y-105797390D02*
X167298410Y-105797390D01*
X166949750Y-105448730D02*
X166949750Y-104059350D01*
X167298410Y-105797390D02*
X166949750Y-105448730D01*
X166949750Y-102890000D02*
X166949750Y-104059350D01*
D16*
%TO.N,/CAM_UART3_CTS*%
X166969850Y-96949850D02*
X166970000Y-96949700D01*
X166969850Y-97185000D02*
X166969850Y-96949850D01*
D14*
X166949750Y-94750250D02*
X169700000Y-92000000D01*
X166949750Y-97160000D02*
X166949750Y-94750250D01*
D16*
%TO.N,/CAM_UART3_RXD*%
X167470000Y-97184950D02*
X167469950Y-97185000D01*
D14*
X167449850Y-95250150D02*
X170700000Y-92000000D01*
X167449850Y-97160000D02*
X167449850Y-95250150D01*
%TO.N,/CAM_UART3_TXD*%
X167949950Y-95750050D02*
X171700000Y-92000000D01*
X167949950Y-97160000D02*
X167949950Y-95750050D01*
%TO.N,/CAM_UART3_PSNT_L*%
X173450050Y-92750050D02*
X172700000Y-92000000D01*
X173450050Y-97160000D02*
X173450050Y-92750050D01*
%TO.N,/CSI_F_D1_P*%
X174700000Y-107663998D02*
X174700000Y-107700000D01*
X175950550Y-106413448D02*
X174700000Y-107663998D01*
X175950550Y-102890000D02*
X175950550Y-106413448D01*
%TO.N,/CSI_E_D1_N*%
X173700000Y-92036002D02*
X173700000Y-92000000D01*
X175450450Y-93786452D02*
X173700000Y-92036002D01*
X175450450Y-97160000D02*
X175450450Y-93786452D01*
%TO.N,/CSI_E_D1_P*%
X175950550Y-93250550D02*
X174700000Y-92000000D01*
X175950550Y-97160000D02*
X175950550Y-93250550D01*
%TO.N,/CSI_F_CLK_N*%
X176950750Y-106449250D02*
X175700000Y-107700000D01*
X176950750Y-102890000D02*
X176950750Y-106449250D01*
%TO.N,/CSI_E_CLK_N*%
X176950750Y-93250750D02*
X175700000Y-92000000D01*
X176950750Y-97160000D02*
X176950750Y-93250750D01*
%TO.N,/CSI_F_CLK_P*%
X177450850Y-106949150D02*
X176700000Y-107700000D01*
X177450850Y-102890000D02*
X177450850Y-106949150D01*
%TO.N,/CSI_E_CLK_P*%
X177450850Y-92750850D02*
X176700000Y-92000000D01*
X177450850Y-97160000D02*
X177450850Y-92750850D01*
%TO.N,/CSI_F_D0_N*%
X178451050Y-106948950D02*
X177700000Y-107700000D01*
X178451050Y-102890000D02*
X178451050Y-106948950D01*
%TO.N,/CSI_E_D0_N*%
X178451050Y-92751050D02*
X177700000Y-92000000D01*
X178451050Y-97160000D02*
X178451050Y-92751050D01*
%TO.N,/CSI_F_D0_P*%
X178951150Y-107448850D02*
X178700000Y-107700000D01*
X178951150Y-102890000D02*
X178951150Y-107448850D01*
%TO.N,/CSI_E_D0_P*%
X178951150Y-92251150D02*
X178700000Y-92000000D01*
X178951150Y-97160000D02*
X178951150Y-92251150D01*
%TO.N,/CSI_D_D1_N*%
X179951350Y-107448650D02*
X179700000Y-107700000D01*
X179951350Y-102890000D02*
X179951350Y-107448650D01*
%TO.N,/CSI_C_D1_N*%
X179951350Y-92251350D02*
X179700000Y-92000000D01*
X179951350Y-97160000D02*
X179951350Y-92251350D01*
%TO.N,/CSI_D_D1_P*%
X180451450Y-107451450D02*
X180700000Y-107700000D01*
X180451450Y-102890000D02*
X180451450Y-107451450D01*
%TO.N,/CSI_C_D1_P*%
X180451450Y-92248550D02*
X180700000Y-92000000D01*
X180451450Y-97160000D02*
X180451450Y-92248550D01*
%TO.N,/CSI_D_CLK_N*%
X181451600Y-107451600D02*
X181700000Y-107700000D01*
X181451600Y-102890000D02*
X181451600Y-107451600D01*
%TO.N,/CSI_C_CLK_N*%
X181451600Y-92248400D02*
X181700000Y-92000000D01*
X181451600Y-97160000D02*
X181451600Y-92248400D01*
%TO.N,/CSI_D_CLK_P*%
X181951700Y-106951700D02*
X182700000Y-107700000D01*
X181951700Y-102890000D02*
X181951700Y-106951700D01*
%TO.N,/CSI_C_CLK_P*%
X181951700Y-92748300D02*
X182700000Y-92000000D01*
X181951700Y-97160000D02*
X181951700Y-92748300D01*
%TO.N,/CSI_D_D0_N*%
X182952000Y-106952000D02*
X183700000Y-107700000D01*
X182952000Y-102890000D02*
X182952000Y-106952000D01*
%TO.N,/CSI_C_D0_N*%
X182952000Y-92748000D02*
X183700000Y-92000000D01*
X182952000Y-97160000D02*
X182952000Y-92748000D01*
%TO.N,/CSI_D_D0_P*%
X184700000Y-107663998D02*
X184700000Y-107700000D01*
X183452100Y-106416098D02*
X184700000Y-107663998D01*
X183452100Y-102890000D02*
X183452100Y-106416098D01*
%TO.N,/CSI_C_D0_P*%
X183452100Y-93247900D02*
X184700000Y-92000000D01*
X183452100Y-97160000D02*
X183452100Y-93247900D01*
%TO.N,/CSI_B_D1_N*%
X184452300Y-106452300D02*
X185700000Y-107700000D01*
X184452300Y-102890000D02*
X184452300Y-106452300D01*
%TO.N,/CSI_A_D1_N*%
X184452300Y-93247700D02*
X185700000Y-92000000D01*
X184452300Y-97160000D02*
X184452300Y-93247700D01*
%TO.N,/CSI_B_D1_P*%
X184952300Y-105952300D02*
X186700000Y-107700000D01*
X184952300Y-102890000D02*
X184952300Y-105952300D01*
%TO.N,/CSI_A_D1_P*%
X184952300Y-93747700D02*
X186700000Y-92000000D01*
X184952300Y-97160000D02*
X184952300Y-93747700D01*
%TO.N,/CSI_B_CLK_N*%
X185952500Y-105952500D02*
X187700000Y-107700000D01*
X185952500Y-102890000D02*
X185952500Y-105952500D01*
%TO.N,/CSI_A_CLK_N*%
X185952500Y-93747500D02*
X187700000Y-92000000D01*
X185952500Y-97160000D02*
X185952500Y-93747500D01*
%TO.N,/CSI_B_CLK_P*%
X188700000Y-107663998D02*
X188700000Y-107700000D01*
X186452600Y-105416598D02*
X188700000Y-107663998D01*
X186452600Y-102890000D02*
X186452600Y-105416598D01*
%TO.N,/CSI_A_CLK_P*%
X186452600Y-94247400D02*
X188700000Y-92000000D01*
X186452600Y-97160000D02*
X186452600Y-94247400D01*
%TO.N,/CSI_B_D0_N*%
X187452800Y-105452800D02*
X189700000Y-107700000D01*
X187452800Y-102890000D02*
X187452800Y-105452800D01*
%TO.N,/CSI_A_D0_N*%
X189700000Y-92036002D02*
X189700000Y-92000000D01*
X187452800Y-94283202D02*
X189700000Y-92036002D01*
X187452800Y-97160000D02*
X187452800Y-94283202D01*
%TO.N,/CSI_B_D0_P*%
X187952900Y-104952900D02*
X190700000Y-107700000D01*
X187952900Y-102890000D02*
X187952900Y-104952900D01*
%TO.N,/CSI_A_D0_P*%
X187952900Y-94747100D02*
X190700000Y-92000000D01*
X187952900Y-97160000D02*
X187952900Y-94747100D01*
%TO.N,/CSI_F_D1_N*%
X175450450Y-105949550D02*
X173700000Y-107700000D01*
X175450450Y-102890000D02*
X175450450Y-105949550D01*
%TD*%
D17*
%TO.N,GND*%
X214139845Y-109332369D02*
X127489011Y-109359792D01*
X127478855Y-102582227D01*
X149490000Y-102582227D01*
X149490000Y-102807773D01*
X149534002Y-103028984D01*
X149620314Y-103237361D01*
X149745621Y-103424895D01*
X149905105Y-103584379D01*
X150092639Y-103709686D01*
X150301016Y-103795998D01*
X150522227Y-103840000D01*
X150747773Y-103840000D01*
X150968984Y-103795998D01*
X151177361Y-103709686D01*
X151364895Y-103584379D01*
X151524379Y-103424895D01*
X151649686Y-103237361D01*
X151735998Y-103028984D01*
X151780000Y-102807773D01*
X151780000Y-102582227D01*
X151735998Y-102361016D01*
X151649686Y-102152639D01*
X151524379Y-101965105D01*
X151364895Y-101805621D01*
X151177361Y-101680314D01*
X150968984Y-101594002D01*
X150747773Y-101550000D01*
X150522227Y-101550000D01*
X150301016Y-101594002D01*
X150092639Y-101680314D01*
X149905105Y-101805621D01*
X149745621Y-101965105D01*
X149620314Y-102152639D01*
X149534002Y-102361016D01*
X149490000Y-102582227D01*
X127478855Y-102582227D01*
X127474693Y-99804872D01*
X128465000Y-99804872D01*
X128465000Y-100245128D01*
X128550890Y-100676925D01*
X128719369Y-101083669D01*
X128963962Y-101449729D01*
X129275271Y-101761038D01*
X129641331Y-102005631D01*
X130048075Y-102174110D01*
X130479872Y-102260000D01*
X130920128Y-102260000D01*
X131351925Y-102174110D01*
X131758669Y-102005631D01*
X132124729Y-101761038D01*
X132436038Y-101449729D01*
X132680631Y-101083669D01*
X132849110Y-100676925D01*
X132929704Y-100271750D01*
X150728500Y-100271750D01*
X150738964Y-100370733D01*
X150776469Y-100490062D01*
X150836534Y-100599781D01*
X150916849Y-100695674D01*
X151014329Y-100774056D01*
X151125227Y-100831914D01*
X151245282Y-100867025D01*
X151369880Y-100878040D01*
X152347750Y-100875000D01*
X152506500Y-100716250D01*
X152506500Y-100113000D01*
X150887250Y-100113000D01*
X150728500Y-100271750D01*
X132929704Y-100271750D01*
X132935000Y-100245128D01*
X132935000Y-99804872D01*
X132929705Y-99778250D01*
X150728500Y-99778250D01*
X150887250Y-99937000D01*
X152506500Y-99937000D01*
X152506500Y-99333750D01*
X152347750Y-99175000D01*
X151369880Y-99171960D01*
X151245282Y-99182975D01*
X151125227Y-99218086D01*
X151014329Y-99275944D01*
X150916849Y-99354326D01*
X150836534Y-99450219D01*
X150776469Y-99559938D01*
X150738964Y-99679267D01*
X150728500Y-99778250D01*
X132929705Y-99778250D01*
X132849110Y-99373075D01*
X132680631Y-98966331D01*
X132436038Y-98600271D01*
X132124729Y-98288962D01*
X131758669Y-98044369D01*
X131367224Y-97882227D01*
X150315000Y-97882227D01*
X150315000Y-98107773D01*
X150359002Y-98328984D01*
X150445314Y-98537361D01*
X150570621Y-98724895D01*
X150730105Y-98884379D01*
X150917639Y-99009686D01*
X151126016Y-99095998D01*
X151347227Y-99140000D01*
X151572773Y-99140000D01*
X151793984Y-99095998D01*
X152002361Y-99009686D01*
X152189895Y-98884379D01*
X152349379Y-98724895D01*
X152474686Y-98537361D01*
X152560998Y-98328984D01*
X152605000Y-98107773D01*
X152605000Y-97882227D01*
X152560998Y-97661016D01*
X152474686Y-97452639D01*
X152349379Y-97265105D01*
X152189895Y-97105621D01*
X152002361Y-96980314D01*
X151793984Y-96894002D01*
X151572773Y-96850000D01*
X151347227Y-96850000D01*
X151126016Y-96894002D01*
X150917639Y-96980314D01*
X150730105Y-97105621D01*
X150570621Y-97265105D01*
X150445314Y-97452639D01*
X150359002Y-97661016D01*
X150315000Y-97882227D01*
X131367224Y-97882227D01*
X131351925Y-97875890D01*
X130920128Y-97790000D01*
X130479872Y-97790000D01*
X130048075Y-97875890D01*
X129641331Y-98044369D01*
X129275271Y-98288962D01*
X128963962Y-98600271D01*
X128719369Y-98966331D01*
X128550890Y-99373075D01*
X128465000Y-99804872D01*
X127474693Y-99804872D01*
X127462845Y-91898061D01*
X149665000Y-91898061D01*
X149665000Y-92101939D01*
X149704774Y-92301898D01*
X149782795Y-92490256D01*
X149896063Y-92659774D01*
X150040226Y-92803937D01*
X150209744Y-92917205D01*
X150398102Y-92995226D01*
X150598061Y-93035000D01*
X150695554Y-93035000D01*
X152712101Y-95051548D01*
X152712101Y-95800591D01*
X152681788Y-95900518D01*
X152669528Y-96025000D01*
X152669528Y-98295000D01*
X152681788Y-98419482D01*
X152718098Y-98539180D01*
X152777063Y-98649494D01*
X152856415Y-98746185D01*
X152953106Y-98825537D01*
X153063420Y-98884502D01*
X153183118Y-98920812D01*
X153307600Y-98933072D01*
X153586600Y-98933072D01*
X153697150Y-98922184D01*
X153807700Y-98933072D01*
X153875961Y-98933072D01*
X153842746Y-98973544D01*
X153772174Y-99105574D01*
X153751900Y-99172411D01*
X152919250Y-99175000D01*
X152760500Y-99333750D01*
X152760500Y-99937000D01*
X152780500Y-99937000D01*
X152780500Y-100113000D01*
X152760500Y-100113000D01*
X152760500Y-100716250D01*
X152919250Y-100875000D01*
X153187201Y-100875833D01*
X153187201Y-101128786D01*
X153183118Y-101129188D01*
X153063420Y-101165498D01*
X152953106Y-101224463D01*
X152856415Y-101303815D01*
X152777063Y-101400506D01*
X152718098Y-101510820D01*
X152681788Y-101630518D01*
X152669528Y-101755000D01*
X152669528Y-104025000D01*
X152681788Y-104149482D01*
X152687101Y-104166995D01*
X152687101Y-104239550D01*
X152661373Y-104247354D01*
X152529343Y-104317926D01*
X152454323Y-104379494D01*
X152413619Y-104412899D01*
X152389821Y-104441897D01*
X150189003Y-106642716D01*
X150159999Y-106666519D01*
X150116406Y-106719638D01*
X150065026Y-106782244D01*
X149999881Y-106904121D01*
X149994454Y-106914274D01*
X149982453Y-106953836D01*
X149896063Y-107040226D01*
X149782795Y-107209744D01*
X149704774Y-107398102D01*
X149665000Y-107598061D01*
X149665000Y-107801939D01*
X149704774Y-108001898D01*
X149782795Y-108190256D01*
X149896063Y-108359774D01*
X150040226Y-108503937D01*
X150209744Y-108617205D01*
X150398102Y-108695226D01*
X150598061Y-108735000D01*
X150801939Y-108735000D01*
X151001898Y-108695226D01*
X151190256Y-108617205D01*
X151200000Y-108610694D01*
X151209744Y-108617205D01*
X151398102Y-108695226D01*
X151598061Y-108735000D01*
X151801939Y-108735000D01*
X152001898Y-108695226D01*
X152055887Y-108672863D01*
X152065026Y-108689961D01*
X152125561Y-108763722D01*
X152160000Y-108805686D01*
X152188998Y-108829484D01*
X152414871Y-109055357D01*
X152438674Y-109084361D01*
X152554399Y-109179334D01*
X152686428Y-109249906D01*
X152829689Y-109293363D01*
X152941342Y-109304360D01*
X152941352Y-109304360D01*
X152978675Y-109308036D01*
X153015998Y-109304360D01*
X163371038Y-109304360D01*
X163408360Y-109308036D01*
X163445682Y-109304360D01*
X163445693Y-109304360D01*
X163557346Y-109293363D01*
X163700607Y-109249906D01*
X163832636Y-109179334D01*
X163948361Y-109084361D01*
X163972164Y-109055357D01*
X164210998Y-108816523D01*
X164240001Y-108792721D01*
X164334974Y-108676996D01*
X164338439Y-108670513D01*
X164398102Y-108695226D01*
X164598061Y-108735000D01*
X164801939Y-108735000D01*
X165001898Y-108695226D01*
X165190256Y-108617205D01*
X165200000Y-108610694D01*
X165209744Y-108617205D01*
X165398102Y-108695226D01*
X165598061Y-108735000D01*
X165801939Y-108735000D01*
X166001898Y-108695226D01*
X166190256Y-108617205D01*
X166200000Y-108610694D01*
X166209744Y-108617205D01*
X166398102Y-108695226D01*
X166598061Y-108735000D01*
X166801939Y-108735000D01*
X167001898Y-108695226D01*
X167190256Y-108617205D01*
X167200000Y-108610694D01*
X167209744Y-108617205D01*
X167398102Y-108695226D01*
X167598061Y-108735000D01*
X167801939Y-108735000D01*
X168001898Y-108695226D01*
X168190256Y-108617205D01*
X168200000Y-108610694D01*
X168209744Y-108617205D01*
X168398102Y-108695226D01*
X168598061Y-108735000D01*
X168801939Y-108735000D01*
X169001898Y-108695226D01*
X169190256Y-108617205D01*
X169200000Y-108610694D01*
X169209744Y-108617205D01*
X169398102Y-108695226D01*
X169598061Y-108735000D01*
X169801939Y-108735000D01*
X170001898Y-108695226D01*
X170190256Y-108617205D01*
X170200000Y-108610694D01*
X170209744Y-108617205D01*
X170398102Y-108695226D01*
X170598061Y-108735000D01*
X170801939Y-108735000D01*
X171001898Y-108695226D01*
X171190256Y-108617205D01*
X171200000Y-108610694D01*
X171209744Y-108617205D01*
X171398102Y-108695226D01*
X171598061Y-108735000D01*
X171801939Y-108735000D01*
X172001898Y-108695226D01*
X172190256Y-108617205D01*
X172200000Y-108610694D01*
X172209744Y-108617205D01*
X172398102Y-108695226D01*
X172598061Y-108735000D01*
X172801939Y-108735000D01*
X173001898Y-108695226D01*
X173190256Y-108617205D01*
X173200000Y-108610694D01*
X173209744Y-108617205D01*
X173398102Y-108695226D01*
X173598061Y-108735000D01*
X173801939Y-108735000D01*
X174001898Y-108695226D01*
X174190256Y-108617205D01*
X174200000Y-108610694D01*
X174209744Y-108617205D01*
X174398102Y-108695226D01*
X174598061Y-108735000D01*
X174801939Y-108735000D01*
X175001898Y-108695226D01*
X175190256Y-108617205D01*
X175200000Y-108610694D01*
X175209744Y-108617205D01*
X175398102Y-108695226D01*
X175598061Y-108735000D01*
X175801939Y-108735000D01*
X176001898Y-108695226D01*
X176190256Y-108617205D01*
X176200000Y-108610694D01*
X176209744Y-108617205D01*
X176398102Y-108695226D01*
X176598061Y-108735000D01*
X176801939Y-108735000D01*
X177001898Y-108695226D01*
X177190256Y-108617205D01*
X177200000Y-108610694D01*
X177209744Y-108617205D01*
X177398102Y-108695226D01*
X177598061Y-108735000D01*
X177801939Y-108735000D01*
X178001898Y-108695226D01*
X178190256Y-108617205D01*
X178200000Y-108610694D01*
X178209744Y-108617205D01*
X178398102Y-108695226D01*
X178598061Y-108735000D01*
X178801939Y-108735000D01*
X179001898Y-108695226D01*
X179190256Y-108617205D01*
X179200000Y-108610694D01*
X179209744Y-108617205D01*
X179398102Y-108695226D01*
X179598061Y-108735000D01*
X179801939Y-108735000D01*
X180001898Y-108695226D01*
X180190256Y-108617205D01*
X180200000Y-108610694D01*
X180209744Y-108617205D01*
X180398102Y-108695226D01*
X180598061Y-108735000D01*
X180801939Y-108735000D01*
X181001898Y-108695226D01*
X181190256Y-108617205D01*
X181200000Y-108610694D01*
X181209744Y-108617205D01*
X181398102Y-108695226D01*
X181598061Y-108735000D01*
X181801939Y-108735000D01*
X182001898Y-108695226D01*
X182190256Y-108617205D01*
X182200000Y-108610694D01*
X182209744Y-108617205D01*
X182398102Y-108695226D01*
X182598061Y-108735000D01*
X182801939Y-108735000D01*
X183001898Y-108695226D01*
X183190256Y-108617205D01*
X183200000Y-108610694D01*
X183209744Y-108617205D01*
X183398102Y-108695226D01*
X183598061Y-108735000D01*
X183801939Y-108735000D01*
X184001898Y-108695226D01*
X184190256Y-108617205D01*
X184200000Y-108610694D01*
X184209744Y-108617205D01*
X184398102Y-108695226D01*
X184598061Y-108735000D01*
X184801939Y-108735000D01*
X185001898Y-108695226D01*
X185190256Y-108617205D01*
X185200000Y-108610694D01*
X185209744Y-108617205D01*
X185398102Y-108695226D01*
X185598061Y-108735000D01*
X185801939Y-108735000D01*
X186001898Y-108695226D01*
X186190256Y-108617205D01*
X186200000Y-108610694D01*
X186209744Y-108617205D01*
X186398102Y-108695226D01*
X186598061Y-108735000D01*
X186801939Y-108735000D01*
X187001898Y-108695226D01*
X187190256Y-108617205D01*
X187200000Y-108610694D01*
X187209744Y-108617205D01*
X187398102Y-108695226D01*
X187598061Y-108735000D01*
X187801939Y-108735000D01*
X188001898Y-108695226D01*
X188190256Y-108617205D01*
X188200000Y-108610694D01*
X188209744Y-108617205D01*
X188398102Y-108695226D01*
X188598061Y-108735000D01*
X188801939Y-108735000D01*
X189001898Y-108695226D01*
X189190256Y-108617205D01*
X189200000Y-108610694D01*
X189209744Y-108617205D01*
X189398102Y-108695226D01*
X189598061Y-108735000D01*
X189801939Y-108735000D01*
X190001898Y-108695226D01*
X190190256Y-108617205D01*
X190200000Y-108610694D01*
X190209744Y-108617205D01*
X190398102Y-108695226D01*
X190598061Y-108735000D01*
X190801939Y-108735000D01*
X191001898Y-108695226D01*
X191190256Y-108617205D01*
X191359774Y-108503937D01*
X191503937Y-108359774D01*
X191617205Y-108190256D01*
X191695226Y-108001898D01*
X191735000Y-107801939D01*
X191735000Y-107598061D01*
X191695226Y-107398102D01*
X191617205Y-107209744D01*
X191503937Y-107040226D01*
X191359774Y-106896063D01*
X191190256Y-106782795D01*
X191001898Y-106704774D01*
X190801939Y-106665000D01*
X190704447Y-106665000D01*
X188687900Y-104648454D01*
X188687900Y-104249407D01*
X188718212Y-104149482D01*
X188730472Y-104025000D01*
X188730472Y-102582227D01*
X189620000Y-102582227D01*
X189620000Y-102807773D01*
X189664002Y-103028984D01*
X189750314Y-103237361D01*
X189875621Y-103424895D01*
X190035105Y-103584379D01*
X190222639Y-103709686D01*
X190431016Y-103795998D01*
X190652227Y-103840000D01*
X190877773Y-103840000D01*
X191098984Y-103795998D01*
X191307361Y-103709686D01*
X191494895Y-103584379D01*
X191654379Y-103424895D01*
X191779686Y-103237361D01*
X191865998Y-103028984D01*
X191910000Y-102807773D01*
X191910000Y-102582227D01*
X191865998Y-102361016D01*
X191779686Y-102152639D01*
X191654379Y-101965105D01*
X191494895Y-101805621D01*
X191307361Y-101680314D01*
X191098984Y-101594002D01*
X190877773Y-101550000D01*
X190652227Y-101550000D01*
X190431016Y-101594002D01*
X190222639Y-101680314D01*
X190035105Y-101805621D01*
X189875621Y-101965105D01*
X189750314Y-102152639D01*
X189664002Y-102361016D01*
X189620000Y-102582227D01*
X188730472Y-102582227D01*
X188730472Y-101755000D01*
X188718212Y-101630518D01*
X188681902Y-101510820D01*
X188622937Y-101400506D01*
X188543585Y-101303815D01*
X188446894Y-101224463D01*
X188336580Y-101165498D01*
X188216882Y-101129188D01*
X188092400Y-101116928D01*
X187813400Y-101116928D01*
X187702850Y-101127816D01*
X187592300Y-101116928D01*
X187313300Y-101116928D01*
X187200004Y-101128086D01*
X187123950Y-101120000D01*
X187082515Y-101161435D01*
X187069120Y-101165498D01*
X186958806Y-101224463D01*
X186952700Y-101229474D01*
X186946594Y-101224463D01*
X186836280Y-101165498D01*
X186822885Y-101161435D01*
X186781450Y-101120000D01*
X186705396Y-101128086D01*
X186592100Y-101116928D01*
X186313100Y-101116928D01*
X186202550Y-101127816D01*
X186092000Y-101116928D01*
X185813000Y-101116928D01*
X185699704Y-101128086D01*
X185623650Y-101120000D01*
X185582215Y-101161435D01*
X185568820Y-101165498D01*
X185458506Y-101224463D01*
X185452400Y-101229474D01*
X185446294Y-101224463D01*
X185335980Y-101165498D01*
X185322585Y-101161435D01*
X185281150Y-101120000D01*
X185205096Y-101128086D01*
X185091800Y-101116928D01*
X184812800Y-101116928D01*
X184702300Y-101127811D01*
X184591800Y-101116928D01*
X184312800Y-101116928D01*
X184199504Y-101128086D01*
X184123450Y-101120000D01*
X184082015Y-101161435D01*
X184068620Y-101165498D01*
X183958306Y-101224463D01*
X183952200Y-101229474D01*
X183946094Y-101224463D01*
X183835780Y-101165498D01*
X183822385Y-101161435D01*
X183780950Y-101120000D01*
X183704896Y-101128086D01*
X183591600Y-101116928D01*
X183312600Y-101116928D01*
X183202050Y-101127816D01*
X183091500Y-101116928D01*
X182812500Y-101116928D01*
X182699152Y-101128091D01*
X182623050Y-101120000D01*
X182581572Y-101161478D01*
X182568320Y-101165498D01*
X182458006Y-101224463D01*
X182451850Y-101229515D01*
X182445694Y-101224463D01*
X182335380Y-101165498D01*
X182321985Y-101161435D01*
X182280550Y-101120000D01*
X182204496Y-101128086D01*
X182091200Y-101116928D01*
X181812200Y-101116928D01*
X181701650Y-101127816D01*
X181591100Y-101116928D01*
X181312100Y-101116928D01*
X181198804Y-101128086D01*
X181122750Y-101120000D01*
X181081315Y-101161435D01*
X181067920Y-101165498D01*
X180957606Y-101224463D01*
X180951525Y-101229454D01*
X180945444Y-101224463D01*
X180835130Y-101165498D01*
X180821663Y-101161413D01*
X180780250Y-101120000D01*
X180704220Y-101128084D01*
X180590950Y-101116928D01*
X180311950Y-101116928D01*
X180201400Y-101127816D01*
X180090850Y-101116928D01*
X179811850Y-101116928D01*
X179698554Y-101128086D01*
X179622500Y-101120000D01*
X179581065Y-101161435D01*
X179567670Y-101165498D01*
X179457356Y-101224463D01*
X179451250Y-101229474D01*
X179445144Y-101224463D01*
X179334830Y-101165498D01*
X179321435Y-101161435D01*
X179280000Y-101120000D01*
X179203946Y-101128086D01*
X179090650Y-101116928D01*
X178811650Y-101116928D01*
X178701100Y-101127816D01*
X178590550Y-101116928D01*
X178311550Y-101116928D01*
X178198254Y-101128086D01*
X178122200Y-101120000D01*
X178080765Y-101161435D01*
X178067370Y-101165498D01*
X177957056Y-101224463D01*
X177950950Y-101229474D01*
X177944844Y-101224463D01*
X177834530Y-101165498D01*
X177821135Y-101161435D01*
X177779700Y-101120000D01*
X177703646Y-101128086D01*
X177590350Y-101116928D01*
X177311350Y-101116928D01*
X177200800Y-101127816D01*
X177090250Y-101116928D01*
X176811250Y-101116928D01*
X176697954Y-101128086D01*
X176621900Y-101120000D01*
X176580465Y-101161435D01*
X176567070Y-101165498D01*
X176456756Y-101224463D01*
X176450650Y-101229474D01*
X176444544Y-101224463D01*
X176334230Y-101165498D01*
X176320835Y-101161435D01*
X176279400Y-101120000D01*
X176203346Y-101128086D01*
X176090050Y-101116928D01*
X175811050Y-101116928D01*
X175700500Y-101127816D01*
X175589950Y-101116928D01*
X175310950Y-101116928D01*
X175197654Y-101128086D01*
X175121600Y-101120000D01*
X175080165Y-101161435D01*
X175066770Y-101165498D01*
X174956456Y-101224463D01*
X174950350Y-101229474D01*
X174944244Y-101224463D01*
X174833930Y-101165498D01*
X174820535Y-101161435D01*
X174779100Y-101120000D01*
X174703046Y-101128086D01*
X174589750Y-101116928D01*
X174310750Y-101116928D01*
X174200200Y-101127816D01*
X174089650Y-101116928D01*
X173810650Y-101116928D01*
X173700100Y-101127816D01*
X173589550Y-101116928D01*
X173310550Y-101116928D01*
X173186068Y-101129188D01*
X173066370Y-101165498D01*
X172956056Y-101224463D01*
X172859365Y-101303815D01*
X172780013Y-101400506D01*
X172721048Y-101510820D01*
X172684738Y-101630518D01*
X172672478Y-101755000D01*
X172672478Y-104025000D01*
X172684738Y-104149482D01*
X172721048Y-104269180D01*
X172780013Y-104379494D01*
X172859365Y-104476185D01*
X172956056Y-104555537D01*
X173066370Y-104614502D01*
X173186068Y-104650812D01*
X173310550Y-104663072D01*
X173589550Y-104663072D01*
X173700100Y-104652184D01*
X173810650Y-104663072D01*
X174089650Y-104663072D01*
X174200200Y-104652184D01*
X174310750Y-104663072D01*
X174589750Y-104663072D01*
X174703046Y-104651914D01*
X174715451Y-104653233D01*
X174715451Y-105645102D01*
X173695554Y-106665000D01*
X173598061Y-106665000D01*
X173398102Y-106704774D01*
X173209744Y-106782795D01*
X173200000Y-106789306D01*
X173190256Y-106782795D01*
X173001898Y-106704774D01*
X172801939Y-106665000D01*
X172704447Y-106665000D01*
X171745237Y-105705791D01*
X171722217Y-105677741D01*
X171610299Y-105585892D01*
X171482612Y-105517642D01*
X171344064Y-105475614D01*
X171236084Y-105464979D01*
X171199979Y-105461423D01*
X171163874Y-105464979D01*
X170381170Y-105464979D01*
X169801740Y-104885549D01*
X169778719Y-104857498D01*
X169666801Y-104765649D01*
X169539114Y-104697399D01*
X169495039Y-104684029D01*
X169314193Y-104503183D01*
X169291172Y-104475132D01*
X169179254Y-104383283D01*
X169051567Y-104315033D01*
X168913019Y-104273005D01*
X168805039Y-104262370D01*
X168768934Y-104258814D01*
X168732829Y-104262370D01*
X168684950Y-104262370D01*
X168684950Y-104249407D01*
X168715262Y-104149482D01*
X168727522Y-104025000D01*
X168727522Y-101755000D01*
X168715262Y-101630518D01*
X168678952Y-101510820D01*
X168619987Y-101400506D01*
X168540635Y-101303815D01*
X168443944Y-101224463D01*
X168333630Y-101165498D01*
X168213932Y-101129188D01*
X168089450Y-101116928D01*
X167810450Y-101116928D01*
X167699900Y-101127816D01*
X167589350Y-101116928D01*
X167310350Y-101116928D01*
X167199800Y-101127816D01*
X167089250Y-101116928D01*
X166810250Y-101116928D01*
X166699700Y-101127816D01*
X166589150Y-101116928D01*
X166310150Y-101116928D01*
X166196854Y-101128086D01*
X166120800Y-101120000D01*
X166079365Y-101161435D01*
X166065970Y-101165498D01*
X165955656Y-101224463D01*
X165949550Y-101229474D01*
X165943444Y-101224463D01*
X165833130Y-101165498D01*
X165819735Y-101161435D01*
X165778300Y-101120000D01*
X165702246Y-101128086D01*
X165588950Y-101116928D01*
X165309950Y-101116928D01*
X165199400Y-101127816D01*
X165088850Y-101116928D01*
X164809850Y-101116928D01*
X164699300Y-101127816D01*
X164588750Y-101116928D01*
X164309750Y-101116928D01*
X164199200Y-101127816D01*
X164088650Y-101116928D01*
X163809650Y-101116928D01*
X163696354Y-101128086D01*
X163655008Y-101123690D01*
X163654496Y-101122003D01*
X163583924Y-100989974D01*
X163489687Y-100875146D01*
X163587750Y-100875000D01*
X163746500Y-100716250D01*
X163746500Y-100113000D01*
X164000500Y-100113000D01*
X164000500Y-100716250D01*
X164159250Y-100875000D01*
X166219703Y-100878061D01*
X166344255Y-100866541D01*
X166464167Y-100830944D01*
X166574830Y-100772638D01*
X166671992Y-100693862D01*
X166751918Y-100597645D01*
X166811538Y-100487683D01*
X166848560Y-100368204D01*
X166858500Y-100271750D01*
X166868964Y-100370733D01*
X166906469Y-100490062D01*
X166966534Y-100599781D01*
X167046849Y-100695674D01*
X167144329Y-100774056D01*
X167255227Y-100831914D01*
X167375282Y-100867025D01*
X167499880Y-100878040D01*
X168477750Y-100875000D01*
X168636500Y-100716250D01*
X168636500Y-100113000D01*
X168890500Y-100113000D01*
X168890500Y-100716250D01*
X169049250Y-100875000D01*
X170027120Y-100878040D01*
X170151718Y-100867025D01*
X170271773Y-100831914D01*
X170382671Y-100774056D01*
X170480151Y-100695674D01*
X170560466Y-100599781D01*
X170620531Y-100490062D01*
X170658036Y-100370733D01*
X170668500Y-100271750D01*
X170731500Y-100271750D01*
X170741964Y-100370733D01*
X170779469Y-100490062D01*
X170839534Y-100599781D01*
X170919849Y-100695674D01*
X171017329Y-100774056D01*
X171128227Y-100831914D01*
X171248282Y-100867025D01*
X171372880Y-100878040D01*
X172350750Y-100875000D01*
X172509500Y-100716250D01*
X172509500Y-100113000D01*
X172763500Y-100113000D01*
X172763500Y-100716250D01*
X172922250Y-100875000D01*
X173900120Y-100878040D01*
X174024718Y-100867025D01*
X174144773Y-100831914D01*
X174255671Y-100774056D01*
X174353151Y-100695674D01*
X174433466Y-100599781D01*
X174493531Y-100490062D01*
X174531036Y-100370733D01*
X174541500Y-100271750D01*
X174551440Y-100368204D01*
X174588462Y-100487683D01*
X174648082Y-100597645D01*
X174728008Y-100693862D01*
X174825170Y-100772638D01*
X174935833Y-100830944D01*
X175055745Y-100866541D01*
X175180297Y-100878061D01*
X177240750Y-100875000D01*
X177399500Y-100716250D01*
X177399500Y-100113000D01*
X177653500Y-100113000D01*
X177653500Y-100716250D01*
X177812250Y-100875000D01*
X179872703Y-100878061D01*
X179997255Y-100866541D01*
X180117167Y-100830944D01*
X180227830Y-100772638D01*
X180324992Y-100693862D01*
X180404918Y-100597645D01*
X180464538Y-100487683D01*
X180501560Y-100368204D01*
X180511500Y-100271750D01*
X180891500Y-100271750D01*
X180901440Y-100368204D01*
X180938462Y-100487683D01*
X180998082Y-100597645D01*
X181078008Y-100693862D01*
X181175170Y-100772638D01*
X181285833Y-100830944D01*
X181405745Y-100866541D01*
X181530297Y-100878061D01*
X183590750Y-100875000D01*
X183749500Y-100716250D01*
X183749500Y-100113000D01*
X184003500Y-100113000D01*
X184003500Y-100716250D01*
X184162250Y-100875000D01*
X186222703Y-100878061D01*
X186347255Y-100866541D01*
X186467167Y-100830944D01*
X186577830Y-100772638D01*
X186674992Y-100693862D01*
X186754918Y-100597645D01*
X186814538Y-100487683D01*
X186851560Y-100368204D01*
X186861500Y-100271750D01*
X186871964Y-100370733D01*
X186909469Y-100490062D01*
X186969534Y-100599781D01*
X187049849Y-100695674D01*
X187147329Y-100774056D01*
X187258227Y-100831914D01*
X187378282Y-100867025D01*
X187502880Y-100878040D01*
X188480750Y-100875000D01*
X188639500Y-100716250D01*
X188639500Y-100113000D01*
X188893500Y-100113000D01*
X188893500Y-100716250D01*
X189052250Y-100875000D01*
X190030120Y-100878040D01*
X190154718Y-100867025D01*
X190274773Y-100831914D01*
X190385671Y-100774056D01*
X190483151Y-100695674D01*
X190563466Y-100599781D01*
X190623531Y-100490062D01*
X190661036Y-100370733D01*
X190671500Y-100271750D01*
X190512750Y-100113000D01*
X188893500Y-100113000D01*
X188639500Y-100113000D01*
X187020250Y-100113000D01*
X186861500Y-100271750D01*
X186702750Y-100113000D01*
X184003500Y-100113000D01*
X183749500Y-100113000D01*
X181050250Y-100113000D01*
X180891500Y-100271750D01*
X180511500Y-100271750D01*
X180352750Y-100113000D01*
X177653500Y-100113000D01*
X177399500Y-100113000D01*
X174700250Y-100113000D01*
X174541500Y-100271750D01*
X174382750Y-100113000D01*
X172763500Y-100113000D01*
X172509500Y-100113000D01*
X170890250Y-100113000D01*
X170731500Y-100271750D01*
X170668500Y-100271750D01*
X170509750Y-100113000D01*
X168890500Y-100113000D01*
X168636500Y-100113000D01*
X167017250Y-100113000D01*
X166858500Y-100271750D01*
X166699750Y-100113000D01*
X164000500Y-100113000D01*
X163746500Y-100113000D01*
X163726500Y-100113000D01*
X163726500Y-99937000D01*
X163746500Y-99937000D01*
X163746500Y-99333750D01*
X164000500Y-99333750D01*
X164000500Y-99937000D01*
X166699750Y-99937000D01*
X166858500Y-99778250D01*
X167017250Y-99937000D01*
X168636500Y-99937000D01*
X168636500Y-99333750D01*
X168890500Y-99333750D01*
X168890500Y-99937000D01*
X170509750Y-99937000D01*
X170668500Y-99778250D01*
X170731500Y-99778250D01*
X170890250Y-99937000D01*
X172509500Y-99937000D01*
X172509500Y-99333750D01*
X172763500Y-99333750D01*
X172763500Y-99937000D01*
X174382750Y-99937000D01*
X174541500Y-99778250D01*
X174700250Y-99937000D01*
X177399500Y-99937000D01*
X177399500Y-99333750D01*
X177653500Y-99333750D01*
X177653500Y-99937000D01*
X180352750Y-99937000D01*
X180511500Y-99778250D01*
X180891500Y-99778250D01*
X181050250Y-99937000D01*
X183749500Y-99937000D01*
X183749500Y-99333750D01*
X184003500Y-99333750D01*
X184003500Y-99937000D01*
X186702750Y-99937000D01*
X186861500Y-99778250D01*
X187020250Y-99937000D01*
X188639500Y-99937000D01*
X188639500Y-99333750D01*
X188893500Y-99333750D01*
X188893500Y-99937000D01*
X190512750Y-99937000D01*
X190644878Y-99804872D01*
X208465000Y-99804872D01*
X208465000Y-100245128D01*
X208550890Y-100676925D01*
X208719369Y-101083669D01*
X208963962Y-101449729D01*
X209275271Y-101761038D01*
X209641331Y-102005631D01*
X210048075Y-102174110D01*
X210479872Y-102260000D01*
X210920128Y-102260000D01*
X211351925Y-102174110D01*
X211758669Y-102005631D01*
X212124729Y-101761038D01*
X212436038Y-101449729D01*
X212680631Y-101083669D01*
X212849110Y-100676925D01*
X212935000Y-100245128D01*
X212935000Y-99804872D01*
X212849110Y-99373075D01*
X212680631Y-98966331D01*
X212436038Y-98600271D01*
X212124729Y-98288962D01*
X211758669Y-98044369D01*
X211351925Y-97875890D01*
X210920128Y-97790000D01*
X210479872Y-97790000D01*
X210048075Y-97875890D01*
X209641331Y-98044369D01*
X209275271Y-98288962D01*
X208963962Y-98600271D01*
X208719369Y-98966331D01*
X208550890Y-99373075D01*
X208465000Y-99804872D01*
X190644878Y-99804872D01*
X190671500Y-99778250D01*
X190661036Y-99679267D01*
X190623531Y-99559938D01*
X190563466Y-99450219D01*
X190483151Y-99354326D01*
X190385671Y-99275944D01*
X190274773Y-99218086D01*
X190154718Y-99182975D01*
X190030120Y-99171960D01*
X189052250Y-99175000D01*
X188893500Y-99333750D01*
X188639500Y-99333750D01*
X188480750Y-99175000D01*
X187502880Y-99171960D01*
X187378282Y-99182975D01*
X187258227Y-99218086D01*
X187147329Y-99275944D01*
X187049849Y-99354326D01*
X186969534Y-99450219D01*
X186909469Y-99559938D01*
X186871964Y-99679267D01*
X186861500Y-99778250D01*
X186851560Y-99681796D01*
X186814538Y-99562317D01*
X186754918Y-99452355D01*
X186674992Y-99356138D01*
X186577830Y-99277362D01*
X186467167Y-99219056D01*
X186347255Y-99183459D01*
X186222703Y-99171939D01*
X184162250Y-99175000D01*
X184003500Y-99333750D01*
X183749500Y-99333750D01*
X183590750Y-99175000D01*
X181530297Y-99171939D01*
X181405745Y-99183459D01*
X181285833Y-99219056D01*
X181175170Y-99277362D01*
X181078008Y-99356138D01*
X180998082Y-99452355D01*
X180938462Y-99562317D01*
X180901440Y-99681796D01*
X180891500Y-99778250D01*
X180511500Y-99778250D01*
X180501560Y-99681796D01*
X180464538Y-99562317D01*
X180404918Y-99452355D01*
X180324992Y-99356138D01*
X180227830Y-99277362D01*
X180117167Y-99219056D01*
X179997255Y-99183459D01*
X179872703Y-99171939D01*
X177812250Y-99175000D01*
X177653500Y-99333750D01*
X177399500Y-99333750D01*
X177240750Y-99175000D01*
X175180297Y-99171939D01*
X175055745Y-99183459D01*
X174935833Y-99219056D01*
X174825170Y-99277362D01*
X174728008Y-99356138D01*
X174648082Y-99452355D01*
X174588462Y-99562317D01*
X174551440Y-99681796D01*
X174541500Y-99778250D01*
X174531036Y-99679267D01*
X174493531Y-99559938D01*
X174433466Y-99450219D01*
X174353151Y-99354326D01*
X174255671Y-99275944D01*
X174144773Y-99218086D01*
X174024718Y-99182975D01*
X173900120Y-99171960D01*
X172922250Y-99175000D01*
X172763500Y-99333750D01*
X172509500Y-99333750D01*
X172350750Y-99175000D01*
X171372880Y-99171960D01*
X171248282Y-99182975D01*
X171128227Y-99218086D01*
X171017329Y-99275944D01*
X170919849Y-99354326D01*
X170839534Y-99450219D01*
X170779469Y-99559938D01*
X170741964Y-99679267D01*
X170731500Y-99778250D01*
X170668500Y-99778250D01*
X170658036Y-99679267D01*
X170620531Y-99559938D01*
X170560466Y-99450219D01*
X170480151Y-99354326D01*
X170382671Y-99275944D01*
X170271773Y-99218086D01*
X170151718Y-99182975D01*
X170027120Y-99171960D01*
X169049250Y-99175000D01*
X168890500Y-99333750D01*
X168636500Y-99333750D01*
X168477750Y-99175000D01*
X167499880Y-99171960D01*
X167375282Y-99182975D01*
X167255227Y-99218086D01*
X167144329Y-99275944D01*
X167046849Y-99354326D01*
X166966534Y-99450219D01*
X166906469Y-99559938D01*
X166868964Y-99679267D01*
X166858500Y-99778250D01*
X166848560Y-99681796D01*
X166811538Y-99562317D01*
X166751918Y-99452355D01*
X166671992Y-99356138D01*
X166574830Y-99277362D01*
X166464167Y-99219056D01*
X166344255Y-99183459D01*
X166219703Y-99171939D01*
X164159250Y-99175000D01*
X164000500Y-99333750D01*
X163746500Y-99333750D01*
X163587750Y-99175000D01*
X163553015Y-99174948D01*
X163583924Y-99137286D01*
X163654496Y-99005257D01*
X163679225Y-98923735D01*
X163696354Y-98921914D01*
X163809650Y-98933072D01*
X164088650Y-98933072D01*
X164199200Y-98922184D01*
X164309750Y-98933072D01*
X164588750Y-98933072D01*
X164699300Y-98922184D01*
X164809850Y-98933072D01*
X165088850Y-98933072D01*
X165199400Y-98922184D01*
X165309950Y-98933072D01*
X165588950Y-98933072D01*
X165702246Y-98921914D01*
X165778300Y-98930000D01*
X165819735Y-98888565D01*
X165833130Y-98884502D01*
X165943444Y-98825537D01*
X165949550Y-98820526D01*
X165955656Y-98825537D01*
X166065970Y-98884502D01*
X166079365Y-98888565D01*
X166120800Y-98930000D01*
X166196854Y-98921914D01*
X166310150Y-98933072D01*
X166589150Y-98933072D01*
X166699700Y-98922184D01*
X166810250Y-98933072D01*
X167089250Y-98933072D01*
X167199800Y-98922184D01*
X167310350Y-98933072D01*
X167589350Y-98933072D01*
X167699900Y-98922184D01*
X167810450Y-98933072D01*
X168089450Y-98933072D01*
X168213932Y-98920812D01*
X168333630Y-98884502D01*
X168443944Y-98825537D01*
X168540635Y-98746185D01*
X168619987Y-98649494D01*
X168678952Y-98539180D01*
X168715262Y-98419482D01*
X168727522Y-98295000D01*
X168727522Y-96025000D01*
X168726350Y-96013096D01*
X171704447Y-93035000D01*
X171801939Y-93035000D01*
X172001898Y-92995226D01*
X172190256Y-92917205D01*
X172200000Y-92910694D01*
X172209744Y-92917205D01*
X172398102Y-92995226D01*
X172598061Y-93035000D01*
X172695553Y-93035000D01*
X172715051Y-93054498D01*
X172715050Y-95800592D01*
X172684738Y-95900518D01*
X172672478Y-96025000D01*
X172672478Y-98295000D01*
X172684738Y-98419482D01*
X172721048Y-98539180D01*
X172780013Y-98649494D01*
X172859365Y-98746185D01*
X172956056Y-98825537D01*
X173066370Y-98884502D01*
X173186068Y-98920812D01*
X173310550Y-98933072D01*
X173589550Y-98933072D01*
X173700100Y-98922184D01*
X173810650Y-98933072D01*
X174089650Y-98933072D01*
X174200200Y-98922184D01*
X174310750Y-98933072D01*
X174589750Y-98933072D01*
X174703046Y-98921914D01*
X174779100Y-98930000D01*
X174820535Y-98888565D01*
X174833930Y-98884502D01*
X174944244Y-98825537D01*
X174950350Y-98820526D01*
X174956456Y-98825537D01*
X175066770Y-98884502D01*
X175080165Y-98888565D01*
X175121600Y-98930000D01*
X175197654Y-98921914D01*
X175310950Y-98933072D01*
X175589950Y-98933072D01*
X175700500Y-98922184D01*
X175811050Y-98933072D01*
X176090050Y-98933072D01*
X176203346Y-98921914D01*
X176279400Y-98930000D01*
X176320835Y-98888565D01*
X176334230Y-98884502D01*
X176444544Y-98825537D01*
X176450650Y-98820526D01*
X176456756Y-98825537D01*
X176567070Y-98884502D01*
X176580465Y-98888565D01*
X176621900Y-98930000D01*
X176697954Y-98921914D01*
X176811250Y-98933072D01*
X177090250Y-98933072D01*
X177200800Y-98922184D01*
X177311350Y-98933072D01*
X177590350Y-98933072D01*
X177703646Y-98921914D01*
X177779700Y-98930000D01*
X177821135Y-98888565D01*
X177834530Y-98884502D01*
X177944844Y-98825537D01*
X177950950Y-98820526D01*
X177957056Y-98825537D01*
X178067370Y-98884502D01*
X178080765Y-98888565D01*
X178122200Y-98930000D01*
X178198254Y-98921914D01*
X178311550Y-98933072D01*
X178590550Y-98933072D01*
X178701100Y-98922184D01*
X178811650Y-98933072D01*
X179090650Y-98933072D01*
X179203946Y-98921914D01*
X179280000Y-98930000D01*
X179321435Y-98888565D01*
X179334830Y-98884502D01*
X179445144Y-98825537D01*
X179451250Y-98820526D01*
X179457356Y-98825537D01*
X179567670Y-98884502D01*
X179581065Y-98888565D01*
X179622500Y-98930000D01*
X179698554Y-98921914D01*
X179811850Y-98933072D01*
X180090850Y-98933072D01*
X180201400Y-98922184D01*
X180311950Y-98933072D01*
X180590950Y-98933072D01*
X180704220Y-98921916D01*
X180780250Y-98930000D01*
X180821663Y-98888587D01*
X180835130Y-98884502D01*
X180945444Y-98825537D01*
X180951525Y-98820546D01*
X180957606Y-98825537D01*
X181067920Y-98884502D01*
X181081315Y-98888565D01*
X181122750Y-98930000D01*
X181198804Y-98921914D01*
X181312100Y-98933072D01*
X181591100Y-98933072D01*
X181701650Y-98922184D01*
X181812200Y-98933072D01*
X182091200Y-98933072D01*
X182204496Y-98921914D01*
X182280550Y-98930000D01*
X182321985Y-98888565D01*
X182335380Y-98884502D01*
X182445694Y-98825537D01*
X182451850Y-98820485D01*
X182458006Y-98825537D01*
X182568320Y-98884502D01*
X182581572Y-98888522D01*
X182623050Y-98930000D01*
X182699152Y-98921909D01*
X182812500Y-98933072D01*
X183091500Y-98933072D01*
X183202050Y-98922184D01*
X183312600Y-98933072D01*
X183591600Y-98933072D01*
X183704896Y-98921914D01*
X183780950Y-98930000D01*
X183822385Y-98888565D01*
X183835780Y-98884502D01*
X183946094Y-98825537D01*
X183952200Y-98820526D01*
X183958306Y-98825537D01*
X184068620Y-98884502D01*
X184082015Y-98888565D01*
X184123450Y-98930000D01*
X184199504Y-98921914D01*
X184312800Y-98933072D01*
X184591800Y-98933072D01*
X184702300Y-98922189D01*
X184812800Y-98933072D01*
X185091800Y-98933072D01*
X185205096Y-98921914D01*
X185281150Y-98930000D01*
X185322585Y-98888565D01*
X185335980Y-98884502D01*
X185446294Y-98825537D01*
X185452400Y-98820526D01*
X185458506Y-98825537D01*
X185568820Y-98884502D01*
X185582215Y-98888565D01*
X185623650Y-98930000D01*
X185699704Y-98921914D01*
X185813000Y-98933072D01*
X186092000Y-98933072D01*
X186202550Y-98922184D01*
X186313100Y-98933072D01*
X186592100Y-98933072D01*
X186705396Y-98921914D01*
X186781450Y-98930000D01*
X186822885Y-98888565D01*
X186836280Y-98884502D01*
X186946594Y-98825537D01*
X186952700Y-98820526D01*
X186958806Y-98825537D01*
X187069120Y-98884502D01*
X187082515Y-98888565D01*
X187123950Y-98930000D01*
X187200004Y-98921914D01*
X187313300Y-98933072D01*
X187592300Y-98933072D01*
X187702850Y-98922184D01*
X187813400Y-98933072D01*
X188092400Y-98933072D01*
X188216882Y-98920812D01*
X188336580Y-98884502D01*
X188446894Y-98825537D01*
X188543585Y-98746185D01*
X188622937Y-98649494D01*
X188681902Y-98539180D01*
X188718212Y-98419482D01*
X188730472Y-98295000D01*
X188730472Y-97882227D01*
X188795000Y-97882227D01*
X188795000Y-98107773D01*
X188839002Y-98328984D01*
X188925314Y-98537361D01*
X189050621Y-98724895D01*
X189210105Y-98884379D01*
X189397639Y-99009686D01*
X189606016Y-99095998D01*
X189827227Y-99140000D01*
X190052773Y-99140000D01*
X190273984Y-99095998D01*
X190482361Y-99009686D01*
X190669895Y-98884379D01*
X190829379Y-98724895D01*
X190954686Y-98537361D01*
X191040998Y-98328984D01*
X191085000Y-98107773D01*
X191085000Y-97882227D01*
X191040998Y-97661016D01*
X190954686Y-97452639D01*
X190829379Y-97265105D01*
X190669895Y-97105621D01*
X190482361Y-96980314D01*
X190273984Y-96894002D01*
X190052773Y-96850000D01*
X189827227Y-96850000D01*
X189606016Y-96894002D01*
X189397639Y-96980314D01*
X189210105Y-97105621D01*
X189050621Y-97265105D01*
X188925314Y-97452639D01*
X188839002Y-97661016D01*
X188795000Y-97882227D01*
X188730472Y-97882227D01*
X188730472Y-96025000D01*
X188718212Y-95900518D01*
X188687900Y-95800593D01*
X188687900Y-95051546D01*
X190704447Y-93035000D01*
X190801939Y-93035000D01*
X191001898Y-92995226D01*
X191190256Y-92917205D01*
X191359774Y-92803937D01*
X191503937Y-92659774D01*
X191617205Y-92490256D01*
X191695226Y-92301898D01*
X191735000Y-92101939D01*
X191735000Y-91898061D01*
X191695226Y-91698102D01*
X191617205Y-91509744D01*
X191503937Y-91340226D01*
X191359774Y-91196063D01*
X191190256Y-91082795D01*
X191001898Y-91004774D01*
X190801939Y-90965000D01*
X190598061Y-90965000D01*
X190398102Y-91004774D01*
X190209744Y-91082795D01*
X190200000Y-91089306D01*
X190190256Y-91082795D01*
X190001898Y-91004774D01*
X189801939Y-90965000D01*
X189598061Y-90965000D01*
X189398102Y-91004774D01*
X189209744Y-91082795D01*
X189200000Y-91089306D01*
X189190256Y-91082795D01*
X189001898Y-91004774D01*
X188801939Y-90965000D01*
X188598061Y-90965000D01*
X188398102Y-91004774D01*
X188209744Y-91082795D01*
X188200000Y-91089306D01*
X188190256Y-91082795D01*
X188001898Y-91004774D01*
X187801939Y-90965000D01*
X187598061Y-90965000D01*
X187398102Y-91004774D01*
X187209744Y-91082795D01*
X187200000Y-91089306D01*
X187190256Y-91082795D01*
X187001898Y-91004774D01*
X186801939Y-90965000D01*
X186598061Y-90965000D01*
X186398102Y-91004774D01*
X186209744Y-91082795D01*
X186200000Y-91089306D01*
X186190256Y-91082795D01*
X186001898Y-91004774D01*
X185801939Y-90965000D01*
X185598061Y-90965000D01*
X185398102Y-91004774D01*
X185209744Y-91082795D01*
X185200000Y-91089306D01*
X185190256Y-91082795D01*
X185001898Y-91004774D01*
X184801939Y-90965000D01*
X184598061Y-90965000D01*
X184398102Y-91004774D01*
X184209744Y-91082795D01*
X184200000Y-91089306D01*
X184190256Y-91082795D01*
X184001898Y-91004774D01*
X183801939Y-90965000D01*
X183598061Y-90965000D01*
X183398102Y-91004774D01*
X183209744Y-91082795D01*
X183200000Y-91089306D01*
X183190256Y-91082795D01*
X183001898Y-91004774D01*
X182801939Y-90965000D01*
X182598061Y-90965000D01*
X182398102Y-91004774D01*
X182209744Y-91082795D01*
X182200000Y-91089306D01*
X182190256Y-91082795D01*
X182001898Y-91004774D01*
X181801939Y-90965000D01*
X181598061Y-90965000D01*
X181398102Y-91004774D01*
X181209744Y-91082795D01*
X181200000Y-91089306D01*
X181190256Y-91082795D01*
X181001898Y-91004774D01*
X180801939Y-90965000D01*
X180598061Y-90965000D01*
X180398102Y-91004774D01*
X180209744Y-91082795D01*
X180200000Y-91089306D01*
X180190256Y-91082795D01*
X180001898Y-91004774D01*
X179801939Y-90965000D01*
X179598061Y-90965000D01*
X179398102Y-91004774D01*
X179209744Y-91082795D01*
X179200000Y-91089306D01*
X179190256Y-91082795D01*
X179001898Y-91004774D01*
X178801939Y-90965000D01*
X178598061Y-90965000D01*
X178398102Y-91004774D01*
X178209744Y-91082795D01*
X178200000Y-91089306D01*
X178190256Y-91082795D01*
X178001898Y-91004774D01*
X177801939Y-90965000D01*
X177598061Y-90965000D01*
X177398102Y-91004774D01*
X177209744Y-91082795D01*
X177200000Y-91089306D01*
X177190256Y-91082795D01*
X177001898Y-91004774D01*
X176801939Y-90965000D01*
X176598061Y-90965000D01*
X176398102Y-91004774D01*
X176209744Y-91082795D01*
X176200000Y-91089306D01*
X176190256Y-91082795D01*
X176001898Y-91004774D01*
X175801939Y-90965000D01*
X175598061Y-90965000D01*
X175398102Y-91004774D01*
X175209744Y-91082795D01*
X175200000Y-91089306D01*
X175190256Y-91082795D01*
X175001898Y-91004774D01*
X174801939Y-90965000D01*
X174598061Y-90965000D01*
X174398102Y-91004774D01*
X174209744Y-91082795D01*
X174200000Y-91089306D01*
X174190256Y-91082795D01*
X174001898Y-91004774D01*
X173801939Y-90965000D01*
X173598061Y-90965000D01*
X173398102Y-91004774D01*
X173209744Y-91082795D01*
X173200000Y-91089306D01*
X173190256Y-91082795D01*
X173001898Y-91004774D01*
X172801939Y-90965000D01*
X172598061Y-90965000D01*
X172398102Y-91004774D01*
X172209744Y-91082795D01*
X172200000Y-91089306D01*
X172190256Y-91082795D01*
X172001898Y-91004774D01*
X171801939Y-90965000D01*
X171598061Y-90965000D01*
X171398102Y-91004774D01*
X171209744Y-91082795D01*
X171200000Y-91089306D01*
X171190256Y-91082795D01*
X171001898Y-91004774D01*
X170801939Y-90965000D01*
X170598061Y-90965000D01*
X170398102Y-91004774D01*
X170209744Y-91082795D01*
X170200000Y-91089306D01*
X170190256Y-91082795D01*
X170001898Y-91004774D01*
X169801939Y-90965000D01*
X169598061Y-90965000D01*
X169398102Y-91004774D01*
X169209744Y-91082795D01*
X169200000Y-91089306D01*
X169190256Y-91082795D01*
X169001898Y-91004774D01*
X168801939Y-90965000D01*
X168598061Y-90965000D01*
X168398102Y-91004774D01*
X168209744Y-91082795D01*
X168200000Y-91089306D01*
X168190256Y-91082795D01*
X168001898Y-91004774D01*
X167801939Y-90965000D01*
X167598061Y-90965000D01*
X167398102Y-91004774D01*
X167209744Y-91082795D01*
X167200000Y-91089306D01*
X167190256Y-91082795D01*
X167001898Y-91004774D01*
X166801939Y-90965000D01*
X166598061Y-90965000D01*
X166398102Y-91004774D01*
X166209744Y-91082795D01*
X166200000Y-91089306D01*
X166190256Y-91082795D01*
X166001898Y-91004774D01*
X165801939Y-90965000D01*
X165598061Y-90965000D01*
X165398102Y-91004774D01*
X165209744Y-91082795D01*
X165200000Y-91089306D01*
X165190256Y-91082795D01*
X165001898Y-91004774D01*
X164801939Y-90965000D01*
X164598061Y-90965000D01*
X164398102Y-91004774D01*
X164209744Y-91082795D01*
X164200000Y-91089306D01*
X164190256Y-91082795D01*
X164001898Y-91004774D01*
X163801939Y-90965000D01*
X163598061Y-90965000D01*
X163398102Y-91004774D01*
X163209744Y-91082795D01*
X163200000Y-91089306D01*
X163190256Y-91082795D01*
X163001898Y-91004774D01*
X162801939Y-90965000D01*
X162598061Y-90965000D01*
X162398102Y-91004774D01*
X162209744Y-91082795D01*
X162200000Y-91089306D01*
X162190256Y-91082795D01*
X162001898Y-91004774D01*
X161801939Y-90965000D01*
X161598061Y-90965000D01*
X161398102Y-91004774D01*
X161209744Y-91082795D01*
X161200000Y-91089306D01*
X161190256Y-91082795D01*
X161001898Y-91004774D01*
X160801939Y-90965000D01*
X160598061Y-90965000D01*
X160398102Y-91004774D01*
X160209744Y-91082795D01*
X160200000Y-91089306D01*
X160190256Y-91082795D01*
X160001898Y-91004774D01*
X159801939Y-90965000D01*
X159598061Y-90965000D01*
X159398102Y-91004774D01*
X159209744Y-91082795D01*
X159200000Y-91089306D01*
X159190256Y-91082795D01*
X159001898Y-91004774D01*
X158801939Y-90965000D01*
X158598061Y-90965000D01*
X158398102Y-91004774D01*
X158209744Y-91082795D01*
X158200000Y-91089306D01*
X158190256Y-91082795D01*
X158001898Y-91004774D01*
X157801939Y-90965000D01*
X157598061Y-90965000D01*
X157398102Y-91004774D01*
X157209744Y-91082795D01*
X157200000Y-91089306D01*
X157190256Y-91082795D01*
X157001898Y-91004774D01*
X156801939Y-90965000D01*
X156598061Y-90965000D01*
X156398102Y-91004774D01*
X156209744Y-91082795D01*
X156200000Y-91089306D01*
X156190256Y-91082795D01*
X156001898Y-91004774D01*
X155801939Y-90965000D01*
X155598061Y-90965000D01*
X155398102Y-91004774D01*
X155209744Y-91082795D01*
X155200000Y-91089306D01*
X155190256Y-91082795D01*
X155001898Y-91004774D01*
X154801939Y-90965000D01*
X154598061Y-90965000D01*
X154398102Y-91004774D01*
X154209744Y-91082795D01*
X154200000Y-91089306D01*
X154190256Y-91082795D01*
X154001898Y-91004774D01*
X153801939Y-90965000D01*
X153598061Y-90965000D01*
X153398102Y-91004774D01*
X153209744Y-91082795D01*
X153200000Y-91089306D01*
X153190256Y-91082795D01*
X153001898Y-91004774D01*
X152801939Y-90965000D01*
X152598061Y-90965000D01*
X152398102Y-91004774D01*
X152209744Y-91082795D01*
X152200000Y-91089306D01*
X152190256Y-91082795D01*
X152001898Y-91004774D01*
X151801939Y-90965000D01*
X151598061Y-90965000D01*
X151398102Y-91004774D01*
X151209744Y-91082795D01*
X151200000Y-91089306D01*
X151190256Y-91082795D01*
X151001898Y-91004774D01*
X150801939Y-90965000D01*
X150598061Y-90965000D01*
X150398102Y-91004774D01*
X150209744Y-91082795D01*
X150040226Y-91196063D01*
X149896063Y-91340226D01*
X149782795Y-91509744D01*
X149704774Y-91698102D01*
X149665000Y-91898061D01*
X127462845Y-91898061D01*
X127460989Y-90659924D01*
X214130356Y-90650075D01*
X214139845Y-109332369D01*
%TA.AperFunction,Conductor*%
D18*
G36*
X214139845Y-109332369D02*
G01*
X127489011Y-109359792D01*
X127478855Y-102582227D01*
X149490000Y-102582227D01*
X149490000Y-102807773D01*
X149534002Y-103028984D01*
X149620314Y-103237361D01*
X149745621Y-103424895D01*
X149905105Y-103584379D01*
X150092639Y-103709686D01*
X150301016Y-103795998D01*
X150522227Y-103840000D01*
X150747773Y-103840000D01*
X150968984Y-103795998D01*
X151177361Y-103709686D01*
X151364895Y-103584379D01*
X151524379Y-103424895D01*
X151649686Y-103237361D01*
X151735998Y-103028984D01*
X151780000Y-102807773D01*
X151780000Y-102582227D01*
X151735998Y-102361016D01*
X151649686Y-102152639D01*
X151524379Y-101965105D01*
X151364895Y-101805621D01*
X151177361Y-101680314D01*
X150968984Y-101594002D01*
X150747773Y-101550000D01*
X150522227Y-101550000D01*
X150301016Y-101594002D01*
X150092639Y-101680314D01*
X149905105Y-101805621D01*
X149745621Y-101965105D01*
X149620314Y-102152639D01*
X149534002Y-102361016D01*
X149490000Y-102582227D01*
X127478855Y-102582227D01*
X127474693Y-99804872D01*
X128465000Y-99804872D01*
X128465000Y-100245128D01*
X128550890Y-100676925D01*
X128719369Y-101083669D01*
X128963962Y-101449729D01*
X129275271Y-101761038D01*
X129641331Y-102005631D01*
X130048075Y-102174110D01*
X130479872Y-102260000D01*
X130920128Y-102260000D01*
X131351925Y-102174110D01*
X131758669Y-102005631D01*
X132124729Y-101761038D01*
X132436038Y-101449729D01*
X132680631Y-101083669D01*
X132849110Y-100676925D01*
X132929704Y-100271750D01*
X150728500Y-100271750D01*
X150738964Y-100370733D01*
X150776469Y-100490062D01*
X150836534Y-100599781D01*
X150916849Y-100695674D01*
X151014329Y-100774056D01*
X151125227Y-100831914D01*
X151245282Y-100867025D01*
X151369880Y-100878040D01*
X152347750Y-100875000D01*
X152506500Y-100716250D01*
X152506500Y-100113000D01*
X150887250Y-100113000D01*
X150728500Y-100271750D01*
X132929704Y-100271750D01*
X132935000Y-100245128D01*
X132935000Y-99804872D01*
X132929705Y-99778250D01*
X150728500Y-99778250D01*
X150887250Y-99937000D01*
X152506500Y-99937000D01*
X152506500Y-99333750D01*
X152347750Y-99175000D01*
X151369880Y-99171960D01*
X151245282Y-99182975D01*
X151125227Y-99218086D01*
X151014329Y-99275944D01*
X150916849Y-99354326D01*
X150836534Y-99450219D01*
X150776469Y-99559938D01*
X150738964Y-99679267D01*
X150728500Y-99778250D01*
X132929705Y-99778250D01*
X132849110Y-99373075D01*
X132680631Y-98966331D01*
X132436038Y-98600271D01*
X132124729Y-98288962D01*
X131758669Y-98044369D01*
X131367224Y-97882227D01*
X150315000Y-97882227D01*
X150315000Y-98107773D01*
X150359002Y-98328984D01*
X150445314Y-98537361D01*
X150570621Y-98724895D01*
X150730105Y-98884379D01*
X150917639Y-99009686D01*
X151126016Y-99095998D01*
X151347227Y-99140000D01*
X151572773Y-99140000D01*
X151793984Y-99095998D01*
X152002361Y-99009686D01*
X152189895Y-98884379D01*
X152349379Y-98724895D01*
X152474686Y-98537361D01*
X152560998Y-98328984D01*
X152605000Y-98107773D01*
X152605000Y-97882227D01*
X152560998Y-97661016D01*
X152474686Y-97452639D01*
X152349379Y-97265105D01*
X152189895Y-97105621D01*
X152002361Y-96980314D01*
X151793984Y-96894002D01*
X151572773Y-96850000D01*
X151347227Y-96850000D01*
X151126016Y-96894002D01*
X150917639Y-96980314D01*
X150730105Y-97105621D01*
X150570621Y-97265105D01*
X150445314Y-97452639D01*
X150359002Y-97661016D01*
X150315000Y-97882227D01*
X131367224Y-97882227D01*
X131351925Y-97875890D01*
X130920128Y-97790000D01*
X130479872Y-97790000D01*
X130048075Y-97875890D01*
X129641331Y-98044369D01*
X129275271Y-98288962D01*
X128963962Y-98600271D01*
X128719369Y-98966331D01*
X128550890Y-99373075D01*
X128465000Y-99804872D01*
X127474693Y-99804872D01*
X127462845Y-91898061D01*
X149665000Y-91898061D01*
X149665000Y-92101939D01*
X149704774Y-92301898D01*
X149782795Y-92490256D01*
X149896063Y-92659774D01*
X150040226Y-92803937D01*
X150209744Y-92917205D01*
X150398102Y-92995226D01*
X150598061Y-93035000D01*
X150695554Y-93035000D01*
X152712101Y-95051548D01*
X152712101Y-95800591D01*
X152681788Y-95900518D01*
X152669528Y-96025000D01*
X152669528Y-98295000D01*
X152681788Y-98419482D01*
X152718098Y-98539180D01*
X152777063Y-98649494D01*
X152856415Y-98746185D01*
X152953106Y-98825537D01*
X153063420Y-98884502D01*
X153183118Y-98920812D01*
X153307600Y-98933072D01*
X153586600Y-98933072D01*
X153697150Y-98922184D01*
X153807700Y-98933072D01*
X153875961Y-98933072D01*
X153842746Y-98973544D01*
X153772174Y-99105574D01*
X153751900Y-99172411D01*
X152919250Y-99175000D01*
X152760500Y-99333750D01*
X152760500Y-99937000D01*
X152780500Y-99937000D01*
X152780500Y-100113000D01*
X152760500Y-100113000D01*
X152760500Y-100716250D01*
X152919250Y-100875000D01*
X153187201Y-100875833D01*
X153187201Y-101128786D01*
X153183118Y-101129188D01*
X153063420Y-101165498D01*
X152953106Y-101224463D01*
X152856415Y-101303815D01*
X152777063Y-101400506D01*
X152718098Y-101510820D01*
X152681788Y-101630518D01*
X152669528Y-101755000D01*
X152669528Y-104025000D01*
X152681788Y-104149482D01*
X152687101Y-104166995D01*
X152687101Y-104239550D01*
X152661373Y-104247354D01*
X152529343Y-104317926D01*
X152454323Y-104379494D01*
X152413619Y-104412899D01*
X152389821Y-104441897D01*
X150189003Y-106642716D01*
X150159999Y-106666519D01*
X150116406Y-106719638D01*
X150065026Y-106782244D01*
X149999881Y-106904121D01*
X149994454Y-106914274D01*
X149982453Y-106953836D01*
X149896063Y-107040226D01*
X149782795Y-107209744D01*
X149704774Y-107398102D01*
X149665000Y-107598061D01*
X149665000Y-107801939D01*
X149704774Y-108001898D01*
X149782795Y-108190256D01*
X149896063Y-108359774D01*
X150040226Y-108503937D01*
X150209744Y-108617205D01*
X150398102Y-108695226D01*
X150598061Y-108735000D01*
X150801939Y-108735000D01*
X151001898Y-108695226D01*
X151190256Y-108617205D01*
X151200000Y-108610694D01*
X151209744Y-108617205D01*
X151398102Y-108695226D01*
X151598061Y-108735000D01*
X151801939Y-108735000D01*
X152001898Y-108695226D01*
X152055887Y-108672863D01*
X152065026Y-108689961D01*
X152125561Y-108763722D01*
X152160000Y-108805686D01*
X152188998Y-108829484D01*
X152414871Y-109055357D01*
X152438674Y-109084361D01*
X152554399Y-109179334D01*
X152686428Y-109249906D01*
X152829689Y-109293363D01*
X152941342Y-109304360D01*
X152941352Y-109304360D01*
X152978675Y-109308036D01*
X153015998Y-109304360D01*
X163371038Y-109304360D01*
X163408360Y-109308036D01*
X163445682Y-109304360D01*
X163445693Y-109304360D01*
X163557346Y-109293363D01*
X163700607Y-109249906D01*
X163832636Y-109179334D01*
X163948361Y-109084361D01*
X163972164Y-109055357D01*
X164210998Y-108816523D01*
X164240001Y-108792721D01*
X164334974Y-108676996D01*
X164338439Y-108670513D01*
X164398102Y-108695226D01*
X164598061Y-108735000D01*
X164801939Y-108735000D01*
X165001898Y-108695226D01*
X165190256Y-108617205D01*
X165200000Y-108610694D01*
X165209744Y-108617205D01*
X165398102Y-108695226D01*
X165598061Y-108735000D01*
X165801939Y-108735000D01*
X166001898Y-108695226D01*
X166190256Y-108617205D01*
X166200000Y-108610694D01*
X166209744Y-108617205D01*
X166398102Y-108695226D01*
X166598061Y-108735000D01*
X166801939Y-108735000D01*
X167001898Y-108695226D01*
X167190256Y-108617205D01*
X167200000Y-108610694D01*
X167209744Y-108617205D01*
X167398102Y-108695226D01*
X167598061Y-108735000D01*
X167801939Y-108735000D01*
X168001898Y-108695226D01*
X168190256Y-108617205D01*
X168200000Y-108610694D01*
X168209744Y-108617205D01*
X168398102Y-108695226D01*
X168598061Y-108735000D01*
X168801939Y-108735000D01*
X169001898Y-108695226D01*
X169190256Y-108617205D01*
X169200000Y-108610694D01*
X169209744Y-108617205D01*
X169398102Y-108695226D01*
X169598061Y-108735000D01*
X169801939Y-108735000D01*
X170001898Y-108695226D01*
X170190256Y-108617205D01*
X170200000Y-108610694D01*
X170209744Y-108617205D01*
X170398102Y-108695226D01*
X170598061Y-108735000D01*
X170801939Y-108735000D01*
X171001898Y-108695226D01*
X171190256Y-108617205D01*
X171200000Y-108610694D01*
X171209744Y-108617205D01*
X171398102Y-108695226D01*
X171598061Y-108735000D01*
X171801939Y-108735000D01*
X172001898Y-108695226D01*
X172190256Y-108617205D01*
X172200000Y-108610694D01*
X172209744Y-108617205D01*
X172398102Y-108695226D01*
X172598061Y-108735000D01*
X172801939Y-108735000D01*
X173001898Y-108695226D01*
X173190256Y-108617205D01*
X173200000Y-108610694D01*
X173209744Y-108617205D01*
X173398102Y-108695226D01*
X173598061Y-108735000D01*
X173801939Y-108735000D01*
X174001898Y-108695226D01*
X174190256Y-108617205D01*
X174200000Y-108610694D01*
X174209744Y-108617205D01*
X174398102Y-108695226D01*
X174598061Y-108735000D01*
X174801939Y-108735000D01*
X175001898Y-108695226D01*
X175190256Y-108617205D01*
X175200000Y-108610694D01*
X175209744Y-108617205D01*
X175398102Y-108695226D01*
X175598061Y-108735000D01*
X175801939Y-108735000D01*
X176001898Y-108695226D01*
X176190256Y-108617205D01*
X176200000Y-108610694D01*
X176209744Y-108617205D01*
X176398102Y-108695226D01*
X176598061Y-108735000D01*
X176801939Y-108735000D01*
X177001898Y-108695226D01*
X177190256Y-108617205D01*
X177200000Y-108610694D01*
X177209744Y-108617205D01*
X177398102Y-108695226D01*
X177598061Y-108735000D01*
X177801939Y-108735000D01*
X178001898Y-108695226D01*
X178190256Y-108617205D01*
X178200000Y-108610694D01*
X178209744Y-108617205D01*
X178398102Y-108695226D01*
X178598061Y-108735000D01*
X178801939Y-108735000D01*
X179001898Y-108695226D01*
X179190256Y-108617205D01*
X179200000Y-108610694D01*
X179209744Y-108617205D01*
X179398102Y-108695226D01*
X179598061Y-108735000D01*
X179801939Y-108735000D01*
X180001898Y-108695226D01*
X180190256Y-108617205D01*
X180200000Y-108610694D01*
X180209744Y-108617205D01*
X180398102Y-108695226D01*
X180598061Y-108735000D01*
X180801939Y-108735000D01*
X181001898Y-108695226D01*
X181190256Y-108617205D01*
X181200000Y-108610694D01*
X181209744Y-108617205D01*
X181398102Y-108695226D01*
X181598061Y-108735000D01*
X181801939Y-108735000D01*
X182001898Y-108695226D01*
X182190256Y-108617205D01*
X182200000Y-108610694D01*
X182209744Y-108617205D01*
X182398102Y-108695226D01*
X182598061Y-108735000D01*
X182801939Y-108735000D01*
X183001898Y-108695226D01*
X183190256Y-108617205D01*
X183200000Y-108610694D01*
X183209744Y-108617205D01*
X183398102Y-108695226D01*
X183598061Y-108735000D01*
X183801939Y-108735000D01*
X184001898Y-108695226D01*
X184190256Y-108617205D01*
X184200000Y-108610694D01*
X184209744Y-108617205D01*
X184398102Y-108695226D01*
X184598061Y-108735000D01*
X184801939Y-108735000D01*
X185001898Y-108695226D01*
X185190256Y-108617205D01*
X185200000Y-108610694D01*
X185209744Y-108617205D01*
X185398102Y-108695226D01*
X185598061Y-108735000D01*
X185801939Y-108735000D01*
X186001898Y-108695226D01*
X186190256Y-108617205D01*
X186200000Y-108610694D01*
X186209744Y-108617205D01*
X186398102Y-108695226D01*
X186598061Y-108735000D01*
X186801939Y-108735000D01*
X187001898Y-108695226D01*
X187190256Y-108617205D01*
X187200000Y-108610694D01*
X187209744Y-108617205D01*
X187398102Y-108695226D01*
X187598061Y-108735000D01*
X187801939Y-108735000D01*
X188001898Y-108695226D01*
X188190256Y-108617205D01*
X188200000Y-108610694D01*
X188209744Y-108617205D01*
X188398102Y-108695226D01*
X188598061Y-108735000D01*
X188801939Y-108735000D01*
X189001898Y-108695226D01*
X189190256Y-108617205D01*
X189200000Y-108610694D01*
X189209744Y-108617205D01*
X189398102Y-108695226D01*
X189598061Y-108735000D01*
X189801939Y-108735000D01*
X190001898Y-108695226D01*
X190190256Y-108617205D01*
X190200000Y-108610694D01*
X190209744Y-108617205D01*
X190398102Y-108695226D01*
X190598061Y-108735000D01*
X190801939Y-108735000D01*
X191001898Y-108695226D01*
X191190256Y-108617205D01*
X191359774Y-108503937D01*
X191503937Y-108359774D01*
X191617205Y-108190256D01*
X191695226Y-108001898D01*
X191735000Y-107801939D01*
X191735000Y-107598061D01*
X191695226Y-107398102D01*
X191617205Y-107209744D01*
X191503937Y-107040226D01*
X191359774Y-106896063D01*
X191190256Y-106782795D01*
X191001898Y-106704774D01*
X190801939Y-106665000D01*
X190704447Y-106665000D01*
X188687900Y-104648454D01*
X188687900Y-104249407D01*
X188718212Y-104149482D01*
X188730472Y-104025000D01*
X188730472Y-102582227D01*
X189620000Y-102582227D01*
X189620000Y-102807773D01*
X189664002Y-103028984D01*
X189750314Y-103237361D01*
X189875621Y-103424895D01*
X190035105Y-103584379D01*
X190222639Y-103709686D01*
X190431016Y-103795998D01*
X190652227Y-103840000D01*
X190877773Y-103840000D01*
X191098984Y-103795998D01*
X191307361Y-103709686D01*
X191494895Y-103584379D01*
X191654379Y-103424895D01*
X191779686Y-103237361D01*
X191865998Y-103028984D01*
X191910000Y-102807773D01*
X191910000Y-102582227D01*
X191865998Y-102361016D01*
X191779686Y-102152639D01*
X191654379Y-101965105D01*
X191494895Y-101805621D01*
X191307361Y-101680314D01*
X191098984Y-101594002D01*
X190877773Y-101550000D01*
X190652227Y-101550000D01*
X190431016Y-101594002D01*
X190222639Y-101680314D01*
X190035105Y-101805621D01*
X189875621Y-101965105D01*
X189750314Y-102152639D01*
X189664002Y-102361016D01*
X189620000Y-102582227D01*
X188730472Y-102582227D01*
X188730472Y-101755000D01*
X188718212Y-101630518D01*
X188681902Y-101510820D01*
X188622937Y-101400506D01*
X188543585Y-101303815D01*
X188446894Y-101224463D01*
X188336580Y-101165498D01*
X188216882Y-101129188D01*
X188092400Y-101116928D01*
X187813400Y-101116928D01*
X187702850Y-101127816D01*
X187592300Y-101116928D01*
X187313300Y-101116928D01*
X187200004Y-101128086D01*
X187123950Y-101120000D01*
X187082515Y-101161435D01*
X187069120Y-101165498D01*
X186958806Y-101224463D01*
X186952700Y-101229474D01*
X186946594Y-101224463D01*
X186836280Y-101165498D01*
X186822885Y-101161435D01*
X186781450Y-101120000D01*
X186705396Y-101128086D01*
X186592100Y-101116928D01*
X186313100Y-101116928D01*
X186202550Y-101127816D01*
X186092000Y-101116928D01*
X185813000Y-101116928D01*
X185699704Y-101128086D01*
X185623650Y-101120000D01*
X185582215Y-101161435D01*
X185568820Y-101165498D01*
X185458506Y-101224463D01*
X185452400Y-101229474D01*
X185446294Y-101224463D01*
X185335980Y-101165498D01*
X185322585Y-101161435D01*
X185281150Y-101120000D01*
X185205096Y-101128086D01*
X185091800Y-101116928D01*
X184812800Y-101116928D01*
X184702300Y-101127811D01*
X184591800Y-101116928D01*
X184312800Y-101116928D01*
X184199504Y-101128086D01*
X184123450Y-101120000D01*
X184082015Y-101161435D01*
X184068620Y-101165498D01*
X183958306Y-101224463D01*
X183952200Y-101229474D01*
X183946094Y-101224463D01*
X183835780Y-101165498D01*
X183822385Y-101161435D01*
X183780950Y-101120000D01*
X183704896Y-101128086D01*
X183591600Y-101116928D01*
X183312600Y-101116928D01*
X183202050Y-101127816D01*
X183091500Y-101116928D01*
X182812500Y-101116928D01*
X182699152Y-101128091D01*
X182623050Y-101120000D01*
X182581572Y-101161478D01*
X182568320Y-101165498D01*
X182458006Y-101224463D01*
X182451850Y-101229515D01*
X182445694Y-101224463D01*
X182335380Y-101165498D01*
X182321985Y-101161435D01*
X182280550Y-101120000D01*
X182204496Y-101128086D01*
X182091200Y-101116928D01*
X181812200Y-101116928D01*
X181701650Y-101127816D01*
X181591100Y-101116928D01*
X181312100Y-101116928D01*
X181198804Y-101128086D01*
X181122750Y-101120000D01*
X181081315Y-101161435D01*
X181067920Y-101165498D01*
X180957606Y-101224463D01*
X180951525Y-101229454D01*
X180945444Y-101224463D01*
X180835130Y-101165498D01*
X180821663Y-101161413D01*
X180780250Y-101120000D01*
X180704220Y-101128084D01*
X180590950Y-101116928D01*
X180311950Y-101116928D01*
X180201400Y-101127816D01*
X180090850Y-101116928D01*
X179811850Y-101116928D01*
X179698554Y-101128086D01*
X179622500Y-101120000D01*
X179581065Y-101161435D01*
X179567670Y-101165498D01*
X179457356Y-101224463D01*
X179451250Y-101229474D01*
X179445144Y-101224463D01*
X179334830Y-101165498D01*
X179321435Y-101161435D01*
X179280000Y-101120000D01*
X179203946Y-101128086D01*
X179090650Y-101116928D01*
X178811650Y-101116928D01*
X178701100Y-101127816D01*
X178590550Y-101116928D01*
X178311550Y-101116928D01*
X178198254Y-101128086D01*
X178122200Y-101120000D01*
X178080765Y-101161435D01*
X178067370Y-101165498D01*
X177957056Y-101224463D01*
X177950950Y-101229474D01*
X177944844Y-101224463D01*
X177834530Y-101165498D01*
X177821135Y-101161435D01*
X177779700Y-101120000D01*
X177703646Y-101128086D01*
X177590350Y-101116928D01*
X177311350Y-101116928D01*
X177200800Y-101127816D01*
X177090250Y-101116928D01*
X176811250Y-101116928D01*
X176697954Y-101128086D01*
X176621900Y-101120000D01*
X176580465Y-101161435D01*
X176567070Y-101165498D01*
X176456756Y-101224463D01*
X176450650Y-101229474D01*
X176444544Y-101224463D01*
X176334230Y-101165498D01*
X176320835Y-101161435D01*
X176279400Y-101120000D01*
X176203346Y-101128086D01*
X176090050Y-101116928D01*
X175811050Y-101116928D01*
X175700500Y-101127816D01*
X175589950Y-101116928D01*
X175310950Y-101116928D01*
X175197654Y-101128086D01*
X175121600Y-101120000D01*
X175080165Y-101161435D01*
X175066770Y-101165498D01*
X174956456Y-101224463D01*
X174950350Y-101229474D01*
X174944244Y-101224463D01*
X174833930Y-101165498D01*
X174820535Y-101161435D01*
X174779100Y-101120000D01*
X174703046Y-101128086D01*
X174589750Y-101116928D01*
X174310750Y-101116928D01*
X174200200Y-101127816D01*
X174089650Y-101116928D01*
X173810650Y-101116928D01*
X173700100Y-101127816D01*
X173589550Y-101116928D01*
X173310550Y-101116928D01*
X173186068Y-101129188D01*
X173066370Y-101165498D01*
X172956056Y-101224463D01*
X172859365Y-101303815D01*
X172780013Y-101400506D01*
X172721048Y-101510820D01*
X172684738Y-101630518D01*
X172672478Y-101755000D01*
X172672478Y-104025000D01*
X172684738Y-104149482D01*
X172721048Y-104269180D01*
X172780013Y-104379494D01*
X172859365Y-104476185D01*
X172956056Y-104555537D01*
X173066370Y-104614502D01*
X173186068Y-104650812D01*
X173310550Y-104663072D01*
X173589550Y-104663072D01*
X173700100Y-104652184D01*
X173810650Y-104663072D01*
X174089650Y-104663072D01*
X174200200Y-104652184D01*
X174310750Y-104663072D01*
X174589750Y-104663072D01*
X174703046Y-104651914D01*
X174715451Y-104653233D01*
X174715451Y-105645102D01*
X173695554Y-106665000D01*
X173598061Y-106665000D01*
X173398102Y-106704774D01*
X173209744Y-106782795D01*
X173200000Y-106789306D01*
X173190256Y-106782795D01*
X173001898Y-106704774D01*
X172801939Y-106665000D01*
X172704447Y-106665000D01*
X171745237Y-105705791D01*
X171722217Y-105677741D01*
X171610299Y-105585892D01*
X171482612Y-105517642D01*
X171344064Y-105475614D01*
X171236084Y-105464979D01*
X171199979Y-105461423D01*
X171163874Y-105464979D01*
X170381170Y-105464979D01*
X169801740Y-104885549D01*
X169778719Y-104857498D01*
X169666801Y-104765649D01*
X169539114Y-104697399D01*
X169495039Y-104684029D01*
X169314193Y-104503183D01*
X169291172Y-104475132D01*
X169179254Y-104383283D01*
X169051567Y-104315033D01*
X168913019Y-104273005D01*
X168805039Y-104262370D01*
X168768934Y-104258814D01*
X168732829Y-104262370D01*
X168684950Y-104262370D01*
X168684950Y-104249407D01*
X168715262Y-104149482D01*
X168727522Y-104025000D01*
X168727522Y-101755000D01*
X168715262Y-101630518D01*
X168678952Y-101510820D01*
X168619987Y-101400506D01*
X168540635Y-101303815D01*
X168443944Y-101224463D01*
X168333630Y-101165498D01*
X168213932Y-101129188D01*
X168089450Y-101116928D01*
X167810450Y-101116928D01*
X167699900Y-101127816D01*
X167589350Y-101116928D01*
X167310350Y-101116928D01*
X167199800Y-101127816D01*
X167089250Y-101116928D01*
X166810250Y-101116928D01*
X166699700Y-101127816D01*
X166589150Y-101116928D01*
X166310150Y-101116928D01*
X166196854Y-101128086D01*
X166120800Y-101120000D01*
X166079365Y-101161435D01*
X166065970Y-101165498D01*
X165955656Y-101224463D01*
X165949550Y-101229474D01*
X165943444Y-101224463D01*
X165833130Y-101165498D01*
X165819735Y-101161435D01*
X165778300Y-101120000D01*
X165702246Y-101128086D01*
X165588950Y-101116928D01*
X165309950Y-101116928D01*
X165199400Y-101127816D01*
X165088850Y-101116928D01*
X164809850Y-101116928D01*
X164699300Y-101127816D01*
X164588750Y-101116928D01*
X164309750Y-101116928D01*
X164199200Y-101127816D01*
X164088650Y-101116928D01*
X163809650Y-101116928D01*
X163696354Y-101128086D01*
X163655008Y-101123690D01*
X163654496Y-101122003D01*
X163583924Y-100989974D01*
X163489687Y-100875146D01*
X163587750Y-100875000D01*
X163746500Y-100716250D01*
X163746500Y-100113000D01*
X164000500Y-100113000D01*
X164000500Y-100716250D01*
X164159250Y-100875000D01*
X166219703Y-100878061D01*
X166344255Y-100866541D01*
X166464167Y-100830944D01*
X166574830Y-100772638D01*
X166671992Y-100693862D01*
X166751918Y-100597645D01*
X166811538Y-100487683D01*
X166848560Y-100368204D01*
X166858500Y-100271750D01*
X166868964Y-100370733D01*
X166906469Y-100490062D01*
X166966534Y-100599781D01*
X167046849Y-100695674D01*
X167144329Y-100774056D01*
X167255227Y-100831914D01*
X167375282Y-100867025D01*
X167499880Y-100878040D01*
X168477750Y-100875000D01*
X168636500Y-100716250D01*
X168636500Y-100113000D01*
X168890500Y-100113000D01*
X168890500Y-100716250D01*
X169049250Y-100875000D01*
X170027120Y-100878040D01*
X170151718Y-100867025D01*
X170271773Y-100831914D01*
X170382671Y-100774056D01*
X170480151Y-100695674D01*
X170560466Y-100599781D01*
X170620531Y-100490062D01*
X170658036Y-100370733D01*
X170668500Y-100271750D01*
X170731500Y-100271750D01*
X170741964Y-100370733D01*
X170779469Y-100490062D01*
X170839534Y-100599781D01*
X170919849Y-100695674D01*
X171017329Y-100774056D01*
X171128227Y-100831914D01*
X171248282Y-100867025D01*
X171372880Y-100878040D01*
X172350750Y-100875000D01*
X172509500Y-100716250D01*
X172509500Y-100113000D01*
X172763500Y-100113000D01*
X172763500Y-100716250D01*
X172922250Y-100875000D01*
X173900120Y-100878040D01*
X174024718Y-100867025D01*
X174144773Y-100831914D01*
X174255671Y-100774056D01*
X174353151Y-100695674D01*
X174433466Y-100599781D01*
X174493531Y-100490062D01*
X174531036Y-100370733D01*
X174541500Y-100271750D01*
X174551440Y-100368204D01*
X174588462Y-100487683D01*
X174648082Y-100597645D01*
X174728008Y-100693862D01*
X174825170Y-100772638D01*
X174935833Y-100830944D01*
X175055745Y-100866541D01*
X175180297Y-100878061D01*
X177240750Y-100875000D01*
X177399500Y-100716250D01*
X177399500Y-100113000D01*
X177653500Y-100113000D01*
X177653500Y-100716250D01*
X177812250Y-100875000D01*
X179872703Y-100878061D01*
X179997255Y-100866541D01*
X180117167Y-100830944D01*
X180227830Y-100772638D01*
X180324992Y-100693862D01*
X180404918Y-100597645D01*
X180464538Y-100487683D01*
X180501560Y-100368204D01*
X180511500Y-100271750D01*
X180891500Y-100271750D01*
X180901440Y-100368204D01*
X180938462Y-100487683D01*
X180998082Y-100597645D01*
X181078008Y-100693862D01*
X181175170Y-100772638D01*
X181285833Y-100830944D01*
X181405745Y-100866541D01*
X181530297Y-100878061D01*
X183590750Y-100875000D01*
X183749500Y-100716250D01*
X183749500Y-100113000D01*
X184003500Y-100113000D01*
X184003500Y-100716250D01*
X184162250Y-100875000D01*
X186222703Y-100878061D01*
X186347255Y-100866541D01*
X186467167Y-100830944D01*
X186577830Y-100772638D01*
X186674992Y-100693862D01*
X186754918Y-100597645D01*
X186814538Y-100487683D01*
X186851560Y-100368204D01*
X186861500Y-100271750D01*
X186871964Y-100370733D01*
X186909469Y-100490062D01*
X186969534Y-100599781D01*
X187049849Y-100695674D01*
X187147329Y-100774056D01*
X187258227Y-100831914D01*
X187378282Y-100867025D01*
X187502880Y-100878040D01*
X188480750Y-100875000D01*
X188639500Y-100716250D01*
X188639500Y-100113000D01*
X188893500Y-100113000D01*
X188893500Y-100716250D01*
X189052250Y-100875000D01*
X190030120Y-100878040D01*
X190154718Y-100867025D01*
X190274773Y-100831914D01*
X190385671Y-100774056D01*
X190483151Y-100695674D01*
X190563466Y-100599781D01*
X190623531Y-100490062D01*
X190661036Y-100370733D01*
X190671500Y-100271750D01*
X190512750Y-100113000D01*
X188893500Y-100113000D01*
X188639500Y-100113000D01*
X187020250Y-100113000D01*
X186861500Y-100271750D01*
X186702750Y-100113000D01*
X184003500Y-100113000D01*
X183749500Y-100113000D01*
X181050250Y-100113000D01*
X180891500Y-100271750D01*
X180511500Y-100271750D01*
X180352750Y-100113000D01*
X177653500Y-100113000D01*
X177399500Y-100113000D01*
X174700250Y-100113000D01*
X174541500Y-100271750D01*
X174382750Y-100113000D01*
X172763500Y-100113000D01*
X172509500Y-100113000D01*
X170890250Y-100113000D01*
X170731500Y-100271750D01*
X170668500Y-100271750D01*
X170509750Y-100113000D01*
X168890500Y-100113000D01*
X168636500Y-100113000D01*
X167017250Y-100113000D01*
X166858500Y-100271750D01*
X166699750Y-100113000D01*
X164000500Y-100113000D01*
X163746500Y-100113000D01*
X163726500Y-100113000D01*
X163726500Y-99937000D01*
X163746500Y-99937000D01*
X163746500Y-99333750D01*
X164000500Y-99333750D01*
X164000500Y-99937000D01*
X166699750Y-99937000D01*
X166858500Y-99778250D01*
X167017250Y-99937000D01*
X168636500Y-99937000D01*
X168636500Y-99333750D01*
X168890500Y-99333750D01*
X168890500Y-99937000D01*
X170509750Y-99937000D01*
X170668500Y-99778250D01*
X170731500Y-99778250D01*
X170890250Y-99937000D01*
X172509500Y-99937000D01*
X172509500Y-99333750D01*
X172763500Y-99333750D01*
X172763500Y-99937000D01*
X174382750Y-99937000D01*
X174541500Y-99778250D01*
X174700250Y-99937000D01*
X177399500Y-99937000D01*
X177399500Y-99333750D01*
X177653500Y-99333750D01*
X177653500Y-99937000D01*
X180352750Y-99937000D01*
X180511500Y-99778250D01*
X180891500Y-99778250D01*
X181050250Y-99937000D01*
X183749500Y-99937000D01*
X183749500Y-99333750D01*
X184003500Y-99333750D01*
X184003500Y-99937000D01*
X186702750Y-99937000D01*
X186861500Y-99778250D01*
X187020250Y-99937000D01*
X188639500Y-99937000D01*
X188639500Y-99333750D01*
X188893500Y-99333750D01*
X188893500Y-99937000D01*
X190512750Y-99937000D01*
X190644878Y-99804872D01*
X208465000Y-99804872D01*
X208465000Y-100245128D01*
X208550890Y-100676925D01*
X208719369Y-101083669D01*
X208963962Y-101449729D01*
X209275271Y-101761038D01*
X209641331Y-102005631D01*
X210048075Y-102174110D01*
X210479872Y-102260000D01*
X210920128Y-102260000D01*
X211351925Y-102174110D01*
X211758669Y-102005631D01*
X212124729Y-101761038D01*
X212436038Y-101449729D01*
X212680631Y-101083669D01*
X212849110Y-100676925D01*
X212935000Y-100245128D01*
X212935000Y-99804872D01*
X212849110Y-99373075D01*
X212680631Y-98966331D01*
X212436038Y-98600271D01*
X212124729Y-98288962D01*
X211758669Y-98044369D01*
X211351925Y-97875890D01*
X210920128Y-97790000D01*
X210479872Y-97790000D01*
X210048075Y-97875890D01*
X209641331Y-98044369D01*
X209275271Y-98288962D01*
X208963962Y-98600271D01*
X208719369Y-98966331D01*
X208550890Y-99373075D01*
X208465000Y-99804872D01*
X190644878Y-99804872D01*
X190671500Y-99778250D01*
X190661036Y-99679267D01*
X190623531Y-99559938D01*
X190563466Y-99450219D01*
X190483151Y-99354326D01*
X190385671Y-99275944D01*
X190274773Y-99218086D01*
X190154718Y-99182975D01*
X190030120Y-99171960D01*
X189052250Y-99175000D01*
X188893500Y-99333750D01*
X188639500Y-99333750D01*
X188480750Y-99175000D01*
X187502880Y-99171960D01*
X187378282Y-99182975D01*
X187258227Y-99218086D01*
X187147329Y-99275944D01*
X187049849Y-99354326D01*
X186969534Y-99450219D01*
X186909469Y-99559938D01*
X186871964Y-99679267D01*
X186861500Y-99778250D01*
X186851560Y-99681796D01*
X186814538Y-99562317D01*
X186754918Y-99452355D01*
X186674992Y-99356138D01*
X186577830Y-99277362D01*
X186467167Y-99219056D01*
X186347255Y-99183459D01*
X186222703Y-99171939D01*
X184162250Y-99175000D01*
X184003500Y-99333750D01*
X183749500Y-99333750D01*
X183590750Y-99175000D01*
X181530297Y-99171939D01*
X181405745Y-99183459D01*
X181285833Y-99219056D01*
X181175170Y-99277362D01*
X181078008Y-99356138D01*
X180998082Y-99452355D01*
X180938462Y-99562317D01*
X180901440Y-99681796D01*
X180891500Y-99778250D01*
X180511500Y-99778250D01*
X180501560Y-99681796D01*
X180464538Y-99562317D01*
X180404918Y-99452355D01*
X180324992Y-99356138D01*
X180227830Y-99277362D01*
X180117167Y-99219056D01*
X179997255Y-99183459D01*
X179872703Y-99171939D01*
X177812250Y-99175000D01*
X177653500Y-99333750D01*
X177399500Y-99333750D01*
X177240750Y-99175000D01*
X175180297Y-99171939D01*
X175055745Y-99183459D01*
X174935833Y-99219056D01*
X174825170Y-99277362D01*
X174728008Y-99356138D01*
X174648082Y-99452355D01*
X174588462Y-99562317D01*
X174551440Y-99681796D01*
X174541500Y-99778250D01*
X174531036Y-99679267D01*
X174493531Y-99559938D01*
X174433466Y-99450219D01*
X174353151Y-99354326D01*
X174255671Y-99275944D01*
X174144773Y-99218086D01*
X174024718Y-99182975D01*
X173900120Y-99171960D01*
X172922250Y-99175000D01*
X172763500Y-99333750D01*
X172509500Y-99333750D01*
X172350750Y-99175000D01*
X171372880Y-99171960D01*
X171248282Y-99182975D01*
X171128227Y-99218086D01*
X171017329Y-99275944D01*
X170919849Y-99354326D01*
X170839534Y-99450219D01*
X170779469Y-99559938D01*
X170741964Y-99679267D01*
X170731500Y-99778250D01*
X170668500Y-99778250D01*
X170658036Y-99679267D01*
X170620531Y-99559938D01*
X170560466Y-99450219D01*
X170480151Y-99354326D01*
X170382671Y-99275944D01*
X170271773Y-99218086D01*
X170151718Y-99182975D01*
X170027120Y-99171960D01*
X169049250Y-99175000D01*
X168890500Y-99333750D01*
X168636500Y-99333750D01*
X168477750Y-99175000D01*
X167499880Y-99171960D01*
X167375282Y-99182975D01*
X167255227Y-99218086D01*
X167144329Y-99275944D01*
X167046849Y-99354326D01*
X166966534Y-99450219D01*
X166906469Y-99559938D01*
X166868964Y-99679267D01*
X166858500Y-99778250D01*
X166848560Y-99681796D01*
X166811538Y-99562317D01*
X166751918Y-99452355D01*
X166671992Y-99356138D01*
X166574830Y-99277362D01*
X166464167Y-99219056D01*
X166344255Y-99183459D01*
X166219703Y-99171939D01*
X164159250Y-99175000D01*
X164000500Y-99333750D01*
X163746500Y-99333750D01*
X163587750Y-99175000D01*
X163553015Y-99174948D01*
X163583924Y-99137286D01*
X163654496Y-99005257D01*
X163679225Y-98923735D01*
X163696354Y-98921914D01*
X163809650Y-98933072D01*
X164088650Y-98933072D01*
X164199200Y-98922184D01*
X164309750Y-98933072D01*
X164588750Y-98933072D01*
X164699300Y-98922184D01*
X164809850Y-98933072D01*
X165088850Y-98933072D01*
X165199400Y-98922184D01*
X165309950Y-98933072D01*
X165588950Y-98933072D01*
X165702246Y-98921914D01*
X165778300Y-98930000D01*
X165819735Y-98888565D01*
X165833130Y-98884502D01*
X165943444Y-98825537D01*
X165949550Y-98820526D01*
X165955656Y-98825537D01*
X166065970Y-98884502D01*
X166079365Y-98888565D01*
X166120800Y-98930000D01*
X166196854Y-98921914D01*
X166310150Y-98933072D01*
X166589150Y-98933072D01*
X166699700Y-98922184D01*
X166810250Y-98933072D01*
X167089250Y-98933072D01*
X167199800Y-98922184D01*
X167310350Y-98933072D01*
X167589350Y-98933072D01*
X167699900Y-98922184D01*
X167810450Y-98933072D01*
X168089450Y-98933072D01*
X168213932Y-98920812D01*
X168333630Y-98884502D01*
X168443944Y-98825537D01*
X168540635Y-98746185D01*
X168619987Y-98649494D01*
X168678952Y-98539180D01*
X168715262Y-98419482D01*
X168727522Y-98295000D01*
X168727522Y-96025000D01*
X168726350Y-96013096D01*
X171704447Y-93035000D01*
X171801939Y-93035000D01*
X172001898Y-92995226D01*
X172190256Y-92917205D01*
X172200000Y-92910694D01*
X172209744Y-92917205D01*
X172398102Y-92995226D01*
X172598061Y-93035000D01*
X172695553Y-93035000D01*
X172715051Y-93054498D01*
X172715050Y-95800592D01*
X172684738Y-95900518D01*
X172672478Y-96025000D01*
X172672478Y-98295000D01*
X172684738Y-98419482D01*
X172721048Y-98539180D01*
X172780013Y-98649494D01*
X172859365Y-98746185D01*
X172956056Y-98825537D01*
X173066370Y-98884502D01*
X173186068Y-98920812D01*
X173310550Y-98933072D01*
X173589550Y-98933072D01*
X173700100Y-98922184D01*
X173810650Y-98933072D01*
X174089650Y-98933072D01*
X174200200Y-98922184D01*
X174310750Y-98933072D01*
X174589750Y-98933072D01*
X174703046Y-98921914D01*
X174779100Y-98930000D01*
X174820535Y-98888565D01*
X174833930Y-98884502D01*
X174944244Y-98825537D01*
X174950350Y-98820526D01*
X174956456Y-98825537D01*
X175066770Y-98884502D01*
X175080165Y-98888565D01*
X175121600Y-98930000D01*
X175197654Y-98921914D01*
X175310950Y-98933072D01*
X175589950Y-98933072D01*
X175700500Y-98922184D01*
X175811050Y-98933072D01*
X176090050Y-98933072D01*
X176203346Y-98921914D01*
X176279400Y-98930000D01*
X176320835Y-98888565D01*
X176334230Y-98884502D01*
X176444544Y-98825537D01*
X176450650Y-98820526D01*
X176456756Y-98825537D01*
X176567070Y-98884502D01*
X176580465Y-98888565D01*
X176621900Y-98930000D01*
X176697954Y-98921914D01*
X176811250Y-98933072D01*
X177090250Y-98933072D01*
X177200800Y-98922184D01*
X177311350Y-98933072D01*
X177590350Y-98933072D01*
X177703646Y-98921914D01*
X177779700Y-98930000D01*
X177821135Y-98888565D01*
X177834530Y-98884502D01*
X177944844Y-98825537D01*
X177950950Y-98820526D01*
X177957056Y-98825537D01*
X178067370Y-98884502D01*
X178080765Y-98888565D01*
X178122200Y-98930000D01*
X178198254Y-98921914D01*
X178311550Y-98933072D01*
X178590550Y-98933072D01*
X178701100Y-98922184D01*
X178811650Y-98933072D01*
X179090650Y-98933072D01*
X179203946Y-98921914D01*
X179280000Y-98930000D01*
X179321435Y-98888565D01*
X179334830Y-98884502D01*
X179445144Y-98825537D01*
X179451250Y-98820526D01*
X179457356Y-98825537D01*
X179567670Y-98884502D01*
X179581065Y-98888565D01*
X179622500Y-98930000D01*
X179698554Y-98921914D01*
X179811850Y-98933072D01*
X180090850Y-98933072D01*
X180201400Y-98922184D01*
X180311950Y-98933072D01*
X180590950Y-98933072D01*
X180704220Y-98921916D01*
X180780250Y-98930000D01*
X180821663Y-98888587D01*
X180835130Y-98884502D01*
X180945444Y-98825537D01*
X180951525Y-98820546D01*
X180957606Y-98825537D01*
X181067920Y-98884502D01*
X181081315Y-98888565D01*
X181122750Y-98930000D01*
X181198804Y-98921914D01*
X181312100Y-98933072D01*
X181591100Y-98933072D01*
X181701650Y-98922184D01*
X181812200Y-98933072D01*
X182091200Y-98933072D01*
X182204496Y-98921914D01*
X182280550Y-98930000D01*
X182321985Y-98888565D01*
X182335380Y-98884502D01*
X182445694Y-98825537D01*
X182451850Y-98820485D01*
X182458006Y-98825537D01*
X182568320Y-98884502D01*
X182581572Y-98888522D01*
X182623050Y-98930000D01*
X182699152Y-98921909D01*
X182812500Y-98933072D01*
X183091500Y-98933072D01*
X183202050Y-98922184D01*
X183312600Y-98933072D01*
X183591600Y-98933072D01*
X183704896Y-98921914D01*
X183780950Y-98930000D01*
X183822385Y-98888565D01*
X183835780Y-98884502D01*
X183946094Y-98825537D01*
X183952200Y-98820526D01*
X183958306Y-98825537D01*
X184068620Y-98884502D01*
X184082015Y-98888565D01*
X184123450Y-98930000D01*
X184199504Y-98921914D01*
X184312800Y-98933072D01*
X184591800Y-98933072D01*
X184702300Y-98922189D01*
X184812800Y-98933072D01*
X185091800Y-98933072D01*
X185205096Y-98921914D01*
X185281150Y-98930000D01*
X185322585Y-98888565D01*
X185335980Y-98884502D01*
X185446294Y-98825537D01*
X185452400Y-98820526D01*
X185458506Y-98825537D01*
X185568820Y-98884502D01*
X185582215Y-98888565D01*
X185623650Y-98930000D01*
X185699704Y-98921914D01*
X185813000Y-98933072D01*
X186092000Y-98933072D01*
X186202550Y-98922184D01*
X186313100Y-98933072D01*
X186592100Y-98933072D01*
X186705396Y-98921914D01*
X186781450Y-98930000D01*
X186822885Y-98888565D01*
X186836280Y-98884502D01*
X186946594Y-98825537D01*
X186952700Y-98820526D01*
X186958806Y-98825537D01*
X187069120Y-98884502D01*
X187082515Y-98888565D01*
X187123950Y-98930000D01*
X187200004Y-98921914D01*
X187313300Y-98933072D01*
X187592300Y-98933072D01*
X187702850Y-98922184D01*
X187813400Y-98933072D01*
X188092400Y-98933072D01*
X188216882Y-98920812D01*
X188336580Y-98884502D01*
X188446894Y-98825537D01*
X188543585Y-98746185D01*
X188622937Y-98649494D01*
X188681902Y-98539180D01*
X188718212Y-98419482D01*
X188730472Y-98295000D01*
X188730472Y-97882227D01*
X188795000Y-97882227D01*
X188795000Y-98107773D01*
X188839002Y-98328984D01*
X188925314Y-98537361D01*
X189050621Y-98724895D01*
X189210105Y-98884379D01*
X189397639Y-99009686D01*
X189606016Y-99095998D01*
X189827227Y-99140000D01*
X190052773Y-99140000D01*
X190273984Y-99095998D01*
X190482361Y-99009686D01*
X190669895Y-98884379D01*
X190829379Y-98724895D01*
X190954686Y-98537361D01*
X191040998Y-98328984D01*
X191085000Y-98107773D01*
X191085000Y-97882227D01*
X191040998Y-97661016D01*
X190954686Y-97452639D01*
X190829379Y-97265105D01*
X190669895Y-97105621D01*
X190482361Y-96980314D01*
X190273984Y-96894002D01*
X190052773Y-96850000D01*
X189827227Y-96850000D01*
X189606016Y-96894002D01*
X189397639Y-96980314D01*
X189210105Y-97105621D01*
X189050621Y-97265105D01*
X188925314Y-97452639D01*
X188839002Y-97661016D01*
X188795000Y-97882227D01*
X188730472Y-97882227D01*
X188730472Y-96025000D01*
X188718212Y-95900518D01*
X188687900Y-95800593D01*
X188687900Y-95051546D01*
X190704447Y-93035000D01*
X190801939Y-93035000D01*
X191001898Y-92995226D01*
X191190256Y-92917205D01*
X191359774Y-92803937D01*
X191503937Y-92659774D01*
X191617205Y-92490256D01*
X191695226Y-92301898D01*
X191735000Y-92101939D01*
X191735000Y-91898061D01*
X191695226Y-91698102D01*
X191617205Y-91509744D01*
X191503937Y-91340226D01*
X191359774Y-91196063D01*
X191190256Y-91082795D01*
X191001898Y-91004774D01*
X190801939Y-90965000D01*
X190598061Y-90965000D01*
X190398102Y-91004774D01*
X190209744Y-91082795D01*
X190200000Y-91089306D01*
X190190256Y-91082795D01*
X190001898Y-91004774D01*
X189801939Y-90965000D01*
X189598061Y-90965000D01*
X189398102Y-91004774D01*
X189209744Y-91082795D01*
X189200000Y-91089306D01*
X189190256Y-91082795D01*
X189001898Y-91004774D01*
X188801939Y-90965000D01*
X188598061Y-90965000D01*
X188398102Y-91004774D01*
X188209744Y-91082795D01*
X188200000Y-91089306D01*
X188190256Y-91082795D01*
X188001898Y-91004774D01*
X187801939Y-90965000D01*
X187598061Y-90965000D01*
X187398102Y-91004774D01*
X187209744Y-91082795D01*
X187200000Y-91089306D01*
X187190256Y-91082795D01*
X187001898Y-91004774D01*
X186801939Y-90965000D01*
X186598061Y-90965000D01*
X186398102Y-91004774D01*
X186209744Y-91082795D01*
X186200000Y-91089306D01*
X186190256Y-91082795D01*
X186001898Y-91004774D01*
X185801939Y-90965000D01*
X185598061Y-90965000D01*
X185398102Y-91004774D01*
X185209744Y-91082795D01*
X185200000Y-91089306D01*
X185190256Y-91082795D01*
X185001898Y-91004774D01*
X184801939Y-90965000D01*
X184598061Y-90965000D01*
X184398102Y-91004774D01*
X184209744Y-91082795D01*
X184200000Y-91089306D01*
X184190256Y-91082795D01*
X184001898Y-91004774D01*
X183801939Y-90965000D01*
X183598061Y-90965000D01*
X183398102Y-91004774D01*
X183209744Y-91082795D01*
X183200000Y-91089306D01*
X183190256Y-91082795D01*
X183001898Y-91004774D01*
X182801939Y-90965000D01*
X182598061Y-90965000D01*
X182398102Y-91004774D01*
X182209744Y-91082795D01*
X182200000Y-91089306D01*
X182190256Y-91082795D01*
X182001898Y-91004774D01*
X181801939Y-90965000D01*
X181598061Y-90965000D01*
X181398102Y-91004774D01*
X181209744Y-91082795D01*
X181200000Y-91089306D01*
X181190256Y-91082795D01*
X181001898Y-91004774D01*
X180801939Y-90965000D01*
X180598061Y-90965000D01*
X180398102Y-91004774D01*
X180209744Y-91082795D01*
X180200000Y-91089306D01*
X180190256Y-91082795D01*
X180001898Y-91004774D01*
X179801939Y-90965000D01*
X179598061Y-90965000D01*
X179398102Y-91004774D01*
X179209744Y-91082795D01*
X179200000Y-91089306D01*
X179190256Y-91082795D01*
X179001898Y-91004774D01*
X178801939Y-90965000D01*
X178598061Y-90965000D01*
X178398102Y-91004774D01*
X178209744Y-91082795D01*
X178200000Y-91089306D01*
X178190256Y-91082795D01*
X178001898Y-91004774D01*
X177801939Y-90965000D01*
X177598061Y-90965000D01*
X177398102Y-91004774D01*
X177209744Y-91082795D01*
X177200000Y-91089306D01*
X177190256Y-91082795D01*
X177001898Y-91004774D01*
X176801939Y-90965000D01*
X176598061Y-90965000D01*
X176398102Y-91004774D01*
X176209744Y-91082795D01*
X176200000Y-91089306D01*
X176190256Y-91082795D01*
X176001898Y-91004774D01*
X175801939Y-90965000D01*
X175598061Y-90965000D01*
X175398102Y-91004774D01*
X175209744Y-91082795D01*
X175200000Y-91089306D01*
X175190256Y-91082795D01*
X175001898Y-91004774D01*
X174801939Y-90965000D01*
X174598061Y-90965000D01*
X174398102Y-91004774D01*
X174209744Y-91082795D01*
X174200000Y-91089306D01*
X174190256Y-91082795D01*
X174001898Y-91004774D01*
X173801939Y-90965000D01*
X173598061Y-90965000D01*
X173398102Y-91004774D01*
X173209744Y-91082795D01*
X173200000Y-91089306D01*
X173190256Y-91082795D01*
X173001898Y-91004774D01*
X172801939Y-90965000D01*
X172598061Y-90965000D01*
X172398102Y-91004774D01*
X172209744Y-91082795D01*
X172200000Y-91089306D01*
X172190256Y-91082795D01*
X172001898Y-91004774D01*
X171801939Y-90965000D01*
X171598061Y-90965000D01*
X171398102Y-91004774D01*
X171209744Y-91082795D01*
X171200000Y-91089306D01*
X171190256Y-91082795D01*
X171001898Y-91004774D01*
X170801939Y-90965000D01*
X170598061Y-90965000D01*
X170398102Y-91004774D01*
X170209744Y-91082795D01*
X170200000Y-91089306D01*
X170190256Y-91082795D01*
X170001898Y-91004774D01*
X169801939Y-90965000D01*
X169598061Y-90965000D01*
X169398102Y-91004774D01*
X169209744Y-91082795D01*
X169200000Y-91089306D01*
X169190256Y-91082795D01*
X169001898Y-91004774D01*
X168801939Y-90965000D01*
X168598061Y-90965000D01*
X168398102Y-91004774D01*
X168209744Y-91082795D01*
X168200000Y-91089306D01*
X168190256Y-91082795D01*
X168001898Y-91004774D01*
X167801939Y-90965000D01*
X167598061Y-90965000D01*
X167398102Y-91004774D01*
X167209744Y-91082795D01*
X167200000Y-91089306D01*
X167190256Y-91082795D01*
X167001898Y-91004774D01*
X166801939Y-90965000D01*
X166598061Y-90965000D01*
X166398102Y-91004774D01*
X166209744Y-91082795D01*
X166200000Y-91089306D01*
X166190256Y-91082795D01*
X166001898Y-91004774D01*
X165801939Y-90965000D01*
X165598061Y-90965000D01*
X165398102Y-91004774D01*
X165209744Y-91082795D01*
X165200000Y-91089306D01*
X165190256Y-91082795D01*
X165001898Y-91004774D01*
X164801939Y-90965000D01*
X164598061Y-90965000D01*
X164398102Y-91004774D01*
X164209744Y-91082795D01*
X164200000Y-91089306D01*
X164190256Y-91082795D01*
X164001898Y-91004774D01*
X163801939Y-90965000D01*
X163598061Y-90965000D01*
X163398102Y-91004774D01*
X163209744Y-91082795D01*
X163200000Y-91089306D01*
X163190256Y-91082795D01*
X163001898Y-91004774D01*
X162801939Y-90965000D01*
X162598061Y-90965000D01*
X162398102Y-91004774D01*
X162209744Y-91082795D01*
X162200000Y-91089306D01*
X162190256Y-91082795D01*
X162001898Y-91004774D01*
X161801939Y-90965000D01*
X161598061Y-90965000D01*
X161398102Y-91004774D01*
X161209744Y-91082795D01*
X161200000Y-91089306D01*
X161190256Y-91082795D01*
X161001898Y-91004774D01*
X160801939Y-90965000D01*
X160598061Y-90965000D01*
X160398102Y-91004774D01*
X160209744Y-91082795D01*
X160200000Y-91089306D01*
X160190256Y-91082795D01*
X160001898Y-91004774D01*
X159801939Y-90965000D01*
X159598061Y-90965000D01*
X159398102Y-91004774D01*
X159209744Y-91082795D01*
X159200000Y-91089306D01*
X159190256Y-91082795D01*
X159001898Y-91004774D01*
X158801939Y-90965000D01*
X158598061Y-90965000D01*
X158398102Y-91004774D01*
X158209744Y-91082795D01*
X158200000Y-91089306D01*
X158190256Y-91082795D01*
X158001898Y-91004774D01*
X157801939Y-90965000D01*
X157598061Y-90965000D01*
X157398102Y-91004774D01*
X157209744Y-91082795D01*
X157200000Y-91089306D01*
X157190256Y-91082795D01*
X157001898Y-91004774D01*
X156801939Y-90965000D01*
X156598061Y-90965000D01*
X156398102Y-91004774D01*
X156209744Y-91082795D01*
X156200000Y-91089306D01*
X156190256Y-91082795D01*
X156001898Y-91004774D01*
X155801939Y-90965000D01*
X155598061Y-90965000D01*
X155398102Y-91004774D01*
X155209744Y-91082795D01*
X155200000Y-91089306D01*
X155190256Y-91082795D01*
X155001898Y-91004774D01*
X154801939Y-90965000D01*
X154598061Y-90965000D01*
X154398102Y-91004774D01*
X154209744Y-91082795D01*
X154200000Y-91089306D01*
X154190256Y-91082795D01*
X154001898Y-91004774D01*
X153801939Y-90965000D01*
X153598061Y-90965000D01*
X153398102Y-91004774D01*
X153209744Y-91082795D01*
X153200000Y-91089306D01*
X153190256Y-91082795D01*
X153001898Y-91004774D01*
X152801939Y-90965000D01*
X152598061Y-90965000D01*
X152398102Y-91004774D01*
X152209744Y-91082795D01*
X152200000Y-91089306D01*
X152190256Y-91082795D01*
X152001898Y-91004774D01*
X151801939Y-90965000D01*
X151598061Y-90965000D01*
X151398102Y-91004774D01*
X151209744Y-91082795D01*
X151200000Y-91089306D01*
X151190256Y-91082795D01*
X151001898Y-91004774D01*
X150801939Y-90965000D01*
X150598061Y-90965000D01*
X150398102Y-91004774D01*
X150209744Y-91082795D01*
X150040226Y-91196063D01*
X149896063Y-91340226D01*
X149782795Y-91509744D01*
X149704774Y-91698102D01*
X149665000Y-91898061D01*
X127462845Y-91898061D01*
X127460989Y-90659924D01*
X214130356Y-90650075D01*
X214139845Y-109332369D01*
G37*
%TD.AperFunction*%
D17*
X158454206Y-98825537D02*
X158564520Y-98884502D01*
X158577772Y-98888522D01*
X158619250Y-98930000D01*
X158695352Y-98921909D01*
X158808700Y-98933072D01*
X159087700Y-98933072D01*
X159198250Y-98922184D01*
X159308800Y-98933072D01*
X159587800Y-98933072D01*
X159698350Y-98922184D01*
X159808900Y-98933072D01*
X160087900Y-98933072D01*
X160167319Y-98925250D01*
X160124555Y-99005256D01*
X160117094Y-99019214D01*
X160073637Y-99162475D01*
X160069374Y-99205759D01*
X159994255Y-99183459D01*
X159869703Y-99171939D01*
X157809250Y-99175000D01*
X157650500Y-99333750D01*
X157650500Y-99937000D01*
X157670500Y-99937000D01*
X157670500Y-100113000D01*
X157650500Y-100113000D01*
X157650500Y-100716250D01*
X157809250Y-100875000D01*
X159869703Y-100878061D01*
X159994255Y-100866541D01*
X160063989Y-100845840D01*
X160073638Y-100943805D01*
X160117094Y-101087066D01*
X160135565Y-101121622D01*
X160087900Y-101116928D01*
X159808900Y-101116928D01*
X159698350Y-101127816D01*
X159587800Y-101116928D01*
X159308800Y-101116928D01*
X159198250Y-101127816D01*
X159087700Y-101116928D01*
X158808700Y-101116928D01*
X158695352Y-101128091D01*
X158619250Y-101120000D01*
X158577772Y-101161478D01*
X158564520Y-101165498D01*
X158454206Y-101224463D01*
X158448050Y-101229515D01*
X158441894Y-101224463D01*
X158331580Y-101165498D01*
X158318185Y-101161435D01*
X158276750Y-101120000D01*
X158200696Y-101128086D01*
X158087400Y-101116928D01*
X157808400Y-101116928D01*
X157697850Y-101127816D01*
X157587300Y-101116928D01*
X157308300Y-101116928D01*
X157197750Y-101127816D01*
X157087200Y-101116928D01*
X156808200Y-101116928D01*
X156697700Y-101127811D01*
X156587200Y-101116928D01*
X156308200Y-101116928D01*
X156197650Y-101127816D01*
X156087100Y-101116928D01*
X155808100Y-101116928D01*
X155697550Y-101127816D01*
X155587000Y-101116928D01*
X155308000Y-101116928D01*
X155197450Y-101127816D01*
X155086900Y-101116928D01*
X154807900Y-101116928D01*
X154732797Y-101124325D01*
X154988723Y-100868398D01*
X155007392Y-100853078D01*
X155052745Y-100866541D01*
X155177297Y-100878061D01*
X157237750Y-100875000D01*
X157396500Y-100716250D01*
X157396500Y-100113000D01*
X157376500Y-100113000D01*
X157376500Y-99937000D01*
X157396500Y-99937000D01*
X157396500Y-99333750D01*
X157237750Y-99175000D01*
X156619816Y-99174082D01*
X156653146Y-99111727D01*
X156696603Y-98968466D01*
X156701128Y-98922527D01*
X156808200Y-98933072D01*
X157087200Y-98933072D01*
X157197750Y-98922184D01*
X157308300Y-98933072D01*
X157587300Y-98933072D01*
X157697850Y-98922184D01*
X157808400Y-98933072D01*
X158087400Y-98933072D01*
X158200696Y-98921914D01*
X158276750Y-98930000D01*
X158318185Y-98888565D01*
X158331580Y-98884502D01*
X158441894Y-98825537D01*
X158448050Y-98820485D01*
X158454206Y-98825537D01*
%TA.AperFunction,Conductor*%
D18*
G36*
X158454206Y-98825537D02*
G01*
X158564520Y-98884502D01*
X158577772Y-98888522D01*
X158619250Y-98930000D01*
X158695352Y-98921909D01*
X158808700Y-98933072D01*
X159087700Y-98933072D01*
X159198250Y-98922184D01*
X159308800Y-98933072D01*
X159587800Y-98933072D01*
X159698350Y-98922184D01*
X159808900Y-98933072D01*
X160087900Y-98933072D01*
X160167319Y-98925250D01*
X160124555Y-99005256D01*
X160117094Y-99019214D01*
X160073637Y-99162475D01*
X160069374Y-99205759D01*
X159994255Y-99183459D01*
X159869703Y-99171939D01*
X157809250Y-99175000D01*
X157650500Y-99333750D01*
X157650500Y-99937000D01*
X157670500Y-99937000D01*
X157670500Y-100113000D01*
X157650500Y-100113000D01*
X157650500Y-100716250D01*
X157809250Y-100875000D01*
X159869703Y-100878061D01*
X159994255Y-100866541D01*
X160063989Y-100845840D01*
X160073638Y-100943805D01*
X160117094Y-101087066D01*
X160135565Y-101121622D01*
X160087900Y-101116928D01*
X159808900Y-101116928D01*
X159698350Y-101127816D01*
X159587800Y-101116928D01*
X159308800Y-101116928D01*
X159198250Y-101127816D01*
X159087700Y-101116928D01*
X158808700Y-101116928D01*
X158695352Y-101128091D01*
X158619250Y-101120000D01*
X158577772Y-101161478D01*
X158564520Y-101165498D01*
X158454206Y-101224463D01*
X158448050Y-101229515D01*
X158441894Y-101224463D01*
X158331580Y-101165498D01*
X158318185Y-101161435D01*
X158276750Y-101120000D01*
X158200696Y-101128086D01*
X158087400Y-101116928D01*
X157808400Y-101116928D01*
X157697850Y-101127816D01*
X157587300Y-101116928D01*
X157308300Y-101116928D01*
X157197750Y-101127816D01*
X157087200Y-101116928D01*
X156808200Y-101116928D01*
X156697700Y-101127811D01*
X156587200Y-101116928D01*
X156308200Y-101116928D01*
X156197650Y-101127816D01*
X156087100Y-101116928D01*
X155808100Y-101116928D01*
X155697550Y-101127816D01*
X155587000Y-101116928D01*
X155308000Y-101116928D01*
X155197450Y-101127816D01*
X155086900Y-101116928D01*
X154807900Y-101116928D01*
X154732797Y-101124325D01*
X154988723Y-100868398D01*
X155007392Y-100853078D01*
X155052745Y-100866541D01*
X155177297Y-100878061D01*
X157237750Y-100875000D01*
X157396500Y-100716250D01*
X157396500Y-100113000D01*
X157376500Y-100113000D01*
X157376500Y-99937000D01*
X157396500Y-99937000D01*
X157396500Y-99333750D01*
X157237750Y-99175000D01*
X156619816Y-99174082D01*
X156653146Y-99111727D01*
X156696603Y-98968466D01*
X156701128Y-98922527D01*
X156808200Y-98933072D01*
X157087200Y-98933072D01*
X157197750Y-98922184D01*
X157308300Y-98933072D01*
X157587300Y-98933072D01*
X157697850Y-98922184D01*
X157808400Y-98933072D01*
X158087400Y-98933072D01*
X158200696Y-98921914D01*
X158276750Y-98930000D01*
X158318185Y-98888565D01*
X158331580Y-98884502D01*
X158441894Y-98825537D01*
X158448050Y-98820485D01*
X158454206Y-98825537D01*
G37*
%TD.AperFunction*%
%TD*%
M02*
