M48
; DRILL file {KiCad 5.1.10-88a1d61d58~88~ubuntu18.04.1} date Sat Dec 11 14:35:40 2021
; FORMAT={-:-/ absolute / inch / decimal}
; #@! TF.CreationDate,2021-12-11T14:35:40+07:00
; #@! TF.GenerationSoftware,Kicad,Pcbnew,5.1.10-88a1d61d58~88~ubuntu18.04.1
FMAT,2
INCH
T1C0.0157
T2C0.0402
T3C0.1260
%
G90
G05
T1
X5.7362Y-3.8583
X5.7362Y-4.0157
X5.9331Y-3.622
X5.9331Y-4.2402
X5.9724Y-3.622
X5.9724Y-4.2402
X6.0092Y-3.938
X6.0118Y-3.622
X6.0118Y-4.2402
X6.0512Y-3.622
X6.0512Y-4.2402
X6.0906Y-3.622
X6.0906Y-3.7205
X6.0906Y-4.2402
X6.1299Y-3.622
X6.1299Y-4.2402
X6.1693Y-3.622
X6.1693Y-4.2402
X6.2017Y-3.9377
X6.2087Y-3.622
X6.2087Y-4.2402
X6.248Y-3.622
X6.248Y-4.2402
X6.2874Y-3.622
X6.2874Y-4.2402
X6.3268Y-3.622
X6.3268Y-4.2402
X6.3661Y-3.622
X6.3661Y-4.2402
X6.4055Y-3.622
X6.4055Y-4.2402
X6.4449Y-3.622
X6.4449Y-4.2402
X6.4517Y-3.938
X6.4843Y-3.622
X6.4843Y-4.2402
X6.5236Y-3.622
X6.5236Y-4.2402
X6.563Y-3.622
X6.563Y-4.2402
X6.6024Y-3.622
X6.6024Y-4.2402
X6.6417Y-3.622
X6.6417Y-4.2402
X6.6811Y-3.622
X6.6811Y-4.2402
X6.7205Y-3.622
X6.7205Y-3.8583
X6.7205Y-4.0157
X6.7205Y-4.2402
X6.722Y-3.938
X6.7598Y-3.622
X6.7598Y-4.2402
X6.7992Y-3.622
X6.7992Y-4.2402
X6.8386Y-3.622
X6.8386Y-4.2402
X6.878Y-3.622
X6.878Y-4.2402
X6.9173Y-3.622
X6.9173Y-4.2402
X6.9567Y-3.622
X6.9567Y-4.2402
X6.9892Y-3.938
X6.9961Y-3.622
X6.9961Y-4.2402
X7.0354Y-3.622
X7.0354Y-4.2402
X7.0748Y-3.622
X7.0748Y-4.2402
X7.1142Y-3.622
X7.1142Y-4.2402
X7.1535Y-3.622
X7.1535Y-4.2402
X7.1929Y-3.622
X7.1929Y-4.2402
X7.2323Y-3.622
X7.2323Y-4.2402
X7.2392Y-3.938
X7.2717Y-3.622
X7.2717Y-4.2402
X7.311Y-3.622
X7.311Y-4.2402
X7.3504Y-3.622
X7.3504Y-4.2402
X7.3898Y-3.622
X7.3898Y-4.2402
X7.4291Y-3.622
X7.4291Y-4.2402
X7.4318Y-3.938
X7.4685Y-3.622
X7.4685Y-4.2402
X7.5079Y-3.622
X7.5079Y-4.2402
X7.7047Y-3.8583
X7.7047Y-4.0157
T2
X5.9305Y-4.0431
X5.963Y-3.8581
X7.478Y-3.8581
X7.5104Y-4.0431
T3
X5.1457Y-3.938
X8.2953Y-3.938
T0
M30
