%TF.GenerationSoftware,KiCad,Pcbnew,5.1.10-88a1d61d58~88~ubuntu18.04.1*%
%TF.CreationDate,2021-12-11T14:35:36+07:00*%
%TF.ProjectId,AETINA_AN810_120_PIN_CONNECTOR-EXTENDER,41455449-4e41-45f4-914e-3831305f3132,rev?*%
%TF.SameCoordinates,Original*%
%TF.FileFunction,Soldermask,Top*%
%TF.FilePolarity,Negative*%
%FSLAX46Y46*%
G04 Gerber Fmt 4.6, Leading zero omitted, Abs format (unit mm)*
G04 Created by KiCad (PCBNEW 5.1.10-88a1d61d58~88~ubuntu18.04.1) date 2021-12-11 14:35:36*
%MOMM*%
%LPD*%
G01*
G04 APERTURE LIST*
%ADD10R,0.279000X2.270000*%
%ADD11R,2.540000X0.430000*%
%ADD12R,4.700000X0.430000*%
%ADD13C,1.020000*%
%ADD14C,3.200000*%
G04 APERTURE END LIST*
D10*
%TO.C,J2*%
X187952900Y-97160000D03*
X187952900Y-102890000D03*
X187452800Y-97160000D03*
X187452800Y-102890000D03*
X186952700Y-97160000D03*
X186952700Y-102890000D03*
X186452600Y-97160000D03*
X186452600Y-102890000D03*
X185952500Y-97160000D03*
X185952500Y-102890000D03*
X185452400Y-97160000D03*
X185452400Y-102890000D03*
X184952300Y-97160000D03*
X184952300Y-102890000D03*
X184452300Y-97160000D03*
X184452300Y-102890000D03*
X183952200Y-97160000D03*
X183952200Y-102890000D03*
X183452100Y-97160000D03*
X183452100Y-102890000D03*
X182952000Y-97160000D03*
X182952000Y-102890000D03*
X182451800Y-97160000D03*
X182451800Y-102890000D03*
X181951700Y-97160000D03*
X181951700Y-102890000D03*
X181451600Y-97160000D03*
X181451600Y-102890000D03*
X180951500Y-97160000D03*
X180951500Y-102890000D03*
X180451450Y-97160000D03*
X180451450Y-102890000D03*
X179951350Y-97160000D03*
X179951350Y-102890000D03*
X179451250Y-97160000D03*
X179451250Y-102890000D03*
X178951150Y-97160000D03*
X178951150Y-102890000D03*
X178451050Y-97160000D03*
X178451050Y-102890000D03*
X177950950Y-97160000D03*
X177950950Y-102890000D03*
X177450850Y-97160000D03*
X177450850Y-102890000D03*
X176950750Y-97160000D03*
X176950750Y-102890000D03*
X176450650Y-97160000D03*
X176450650Y-102890000D03*
X175950550Y-97160000D03*
X175950550Y-102890000D03*
X175450450Y-97160000D03*
X175450450Y-102890000D03*
X174950350Y-97160000D03*
X174950350Y-102890000D03*
X174450250Y-97160000D03*
X174450250Y-102890000D03*
X173950150Y-97160000D03*
X173950150Y-102890000D03*
X173450050Y-97160000D03*
X173450050Y-102890000D03*
X167949950Y-97160000D03*
X167949950Y-102890000D03*
X167449850Y-97160000D03*
X167449850Y-102890000D03*
X166949750Y-97160000D03*
X166949750Y-102890000D03*
X166449650Y-97160000D03*
X166449650Y-102890000D03*
X165949550Y-97160000D03*
X165949550Y-102890000D03*
X165449450Y-97160000D03*
X165449450Y-102890000D03*
X164949350Y-97160000D03*
X164949350Y-102890000D03*
X164449250Y-97160000D03*
X164449250Y-102890000D03*
X163949150Y-97160000D03*
X163949150Y-102890000D03*
X163449050Y-97160000D03*
X163449050Y-102890000D03*
X162948950Y-97160000D03*
X162948950Y-102890000D03*
X162448850Y-97160000D03*
X162448850Y-102890000D03*
X161948750Y-97160000D03*
X161948750Y-102890000D03*
X161448650Y-97160000D03*
X161448650Y-102890000D03*
X160948550Y-97160000D03*
X160948550Y-102890000D03*
X160448500Y-97160000D03*
X160448500Y-102890000D03*
X159948400Y-97160000D03*
X159948400Y-102890000D03*
X159448300Y-97160000D03*
X159448300Y-102890000D03*
X158948200Y-97160000D03*
X158948200Y-102890000D03*
X158448000Y-97160000D03*
X158448000Y-102890000D03*
X157947900Y-97160000D03*
X157947900Y-102890000D03*
X157447800Y-97160000D03*
X157447800Y-102890000D03*
X156947700Y-97160000D03*
X156947700Y-102890000D03*
X156447700Y-97160000D03*
X156447700Y-102890000D03*
X155947600Y-97160000D03*
X155947600Y-102890000D03*
X155447500Y-97160000D03*
X155447500Y-102890000D03*
X154947400Y-97160000D03*
X154947400Y-102890000D03*
X154447300Y-97160000D03*
X154447300Y-102890000D03*
X153947200Y-97160000D03*
X153947200Y-102890000D03*
X153447100Y-97160000D03*
X153447100Y-102890000D03*
D11*
X188766500Y-100025000D03*
D12*
X183876500Y-100025000D03*
X177526500Y-100025000D03*
D11*
X172636500Y-100025000D03*
X168763500Y-100025000D03*
D12*
X163873500Y-100025000D03*
X157523500Y-100025000D03*
D11*
X152633500Y-100025000D03*
D13*
X190765000Y-102695000D03*
X150635000Y-102695000D03*
%TD*%
%TO.C,J1*%
X189940000Y-97995000D03*
X151460000Y-97995000D03*
%TD*%
D14*
%TO.C,H2*%
X210700000Y-100025000D03*
%TD*%
%TO.C,H1*%
X130700000Y-100025000D03*
%TD*%
M02*
