%TF.GenerationSoftware,KiCad,Pcbnew,5.1.10-88a1d61d58~88~ubuntu18.04.1*%
%TF.CreationDate,2021-12-11T14:35:36+07:00*%
%TF.ProjectId,AETINA_AN810_120_PIN_CONNECTOR-EXTENDER,41455449-4e41-45f4-914e-3831305f3132,rev?*%
%TF.SameCoordinates,Original*%
%TF.FileFunction,Legend,Top*%
%TF.FilePolarity,Positive*%
%FSLAX46Y46*%
G04 Gerber Fmt 4.6, Leading zero omitted, Abs format (unit mm)*
G04 Created by KiCad (PCBNEW 5.1.10-88a1d61d58~88~ubuntu18.04.1) date 2021-12-11 14:35:36*
%MOMM*%
%LPD*%
G01*
G04 APERTURE LIST*
%ADD10C,0.150000*%
%ADD11C,0.200000*%
G04 APERTURE END LIST*
D10*
X154337480Y-106384339D02*
X154242241Y-106336720D01*
X154147003Y-106241481D01*
X154004146Y-106098624D01*
X153908908Y-106051005D01*
X153813670Y-106051005D01*
X153861289Y-106289100D02*
X153766051Y-106241481D01*
X153670813Y-106146243D01*
X153623194Y-105955767D01*
X153623194Y-105622434D01*
X153670813Y-105431958D01*
X153766051Y-105336720D01*
X153861289Y-105289100D01*
X154051765Y-105289100D01*
X154147003Y-105336720D01*
X154242241Y-105431958D01*
X154289860Y-105622434D01*
X154289860Y-105955767D01*
X154242241Y-106146243D01*
X154147003Y-106241481D01*
X154051765Y-106289100D01*
X153861289Y-106289100D01*
X154670813Y-106241481D02*
X154813670Y-106289100D01*
X155051765Y-106289100D01*
X155147003Y-106241481D01*
X155194622Y-106193862D01*
X155242241Y-106098624D01*
X155242241Y-106003386D01*
X155194622Y-105908148D01*
X155147003Y-105860529D01*
X155051765Y-105812910D01*
X154861289Y-105765291D01*
X154766051Y-105717672D01*
X154718432Y-105670053D01*
X154670813Y-105574815D01*
X154670813Y-105479577D01*
X154718432Y-105384339D01*
X154766051Y-105336720D01*
X154861289Y-105289100D01*
X155099384Y-105289100D01*
X155242241Y-105336720D01*
X155670813Y-106289100D02*
X155670813Y-105289100D01*
X155670813Y-105765291D02*
X156242241Y-105765291D01*
X156242241Y-106289100D02*
X156242241Y-105289100D01*
X156718432Y-105908148D02*
X157480337Y-105908148D01*
X158147003Y-105289100D02*
X158242241Y-105289100D01*
X158337480Y-105336720D01*
X158385099Y-105384339D01*
X158432718Y-105479577D01*
X158480337Y-105670053D01*
X158480337Y-105908148D01*
X158432718Y-106098624D01*
X158385099Y-106193862D01*
X158337480Y-106241481D01*
X158242241Y-106289100D01*
X158147003Y-106289100D01*
X158051765Y-106241481D01*
X158004146Y-106193862D01*
X157956527Y-106098624D01*
X157908908Y-105908148D01*
X157908908Y-105670053D01*
X157956527Y-105479577D01*
X158004146Y-105384339D01*
X158051765Y-105336720D01*
X158147003Y-105289100D01*
X159337480Y-105289100D02*
X159147003Y-105289100D01*
X159051765Y-105336720D01*
X159004146Y-105384339D01*
X158908908Y-105527196D01*
X158861289Y-105717672D01*
X158861289Y-106098624D01*
X158908908Y-106193862D01*
X158956527Y-106241481D01*
X159051765Y-106289100D01*
X159242241Y-106289100D01*
X159337480Y-106241481D01*
X159385099Y-106193862D01*
X159432718Y-106098624D01*
X159432718Y-105860529D01*
X159385099Y-105765291D01*
X159337480Y-105717672D01*
X159242241Y-105670053D01*
X159051765Y-105670053D01*
X158956527Y-105717672D01*
X158908908Y-105765291D01*
X158861289Y-105860529D01*
X160051765Y-105289100D02*
X160147003Y-105289100D01*
X160242241Y-105336720D01*
X160289860Y-105384339D01*
X160337480Y-105479577D01*
X160385099Y-105670053D01*
X160385099Y-105908148D01*
X160337480Y-106098624D01*
X160289860Y-106193862D01*
X160242241Y-106241481D01*
X160147003Y-106289100D01*
X160051765Y-106289100D01*
X159956527Y-106241481D01*
X159908908Y-106193862D01*
X159861289Y-106098624D01*
X159813670Y-105908148D01*
X159813670Y-105670053D01*
X159861289Y-105479577D01*
X159908908Y-105384339D01*
X159956527Y-105336720D01*
X160051765Y-105289100D01*
X160813670Y-105908148D02*
X161575575Y-105908148D01*
X162242241Y-105289100D02*
X162337480Y-105289100D01*
X162432718Y-105336720D01*
X162480337Y-105384339D01*
X162527956Y-105479577D01*
X162575575Y-105670053D01*
X162575575Y-105908148D01*
X162527956Y-106098624D01*
X162480337Y-106193862D01*
X162432718Y-106241481D01*
X162337480Y-106289100D01*
X162242241Y-106289100D01*
X162147003Y-106241481D01*
X162099384Y-106193862D01*
X162051765Y-106098624D01*
X162004146Y-105908148D01*
X162004146Y-105670053D01*
X162051765Y-105479577D01*
X162099384Y-105384339D01*
X162147003Y-105336720D01*
X162242241Y-105289100D01*
X163527956Y-106289100D02*
X162956527Y-106289100D01*
X163242241Y-106289100D02*
X163242241Y-105289100D01*
X163147003Y-105431958D01*
X163051765Y-105527196D01*
X162956527Y-105574815D01*
X163956527Y-105908148D02*
X164718432Y-105908148D01*
X165194622Y-106289100D02*
X165194622Y-105289100D01*
X165194622Y-105765291D02*
X165766051Y-105765291D01*
X165766051Y-106289100D02*
X165766051Y-105289100D01*
X166242241Y-105908148D02*
X167004146Y-105908148D01*
X167480337Y-106289100D02*
X167480337Y-105289100D01*
X167718432Y-105289100D01*
X167861289Y-105336720D01*
X167956527Y-105431958D01*
X168004146Y-105527196D01*
X168051765Y-105717672D01*
X168051765Y-105860529D01*
X168004146Y-106051005D01*
X167956527Y-106146243D01*
X167861289Y-106241481D01*
X167718432Y-106289100D01*
X167480337Y-106289100D01*
X168480337Y-105908148D02*
X169242241Y-105908148D01*
X169670813Y-106003386D02*
X170147003Y-106003386D01*
X169575575Y-106289100D02*
X169908908Y-105289100D01*
X170242241Y-106289100D01*
X170575575Y-105908148D02*
X171337480Y-105908148D01*
X171813670Y-106289100D02*
X171813670Y-105289100D01*
X172385099Y-106289100D02*
X171956527Y-105717672D01*
X172385099Y-105289100D02*
X171813670Y-105860529D01*
X172813670Y-105908148D02*
X173575575Y-105908148D01*
X173908908Y-105289100D02*
X174480337Y-105289100D01*
X174194622Y-106289100D02*
X174194622Y-105289100D01*
X175385099Y-106289100D02*
X175051765Y-105812910D01*
X174813670Y-106289100D02*
X174813670Y-105289100D01*
X175194622Y-105289100D01*
X175289860Y-105336720D01*
X175337480Y-105384339D01*
X175385099Y-105479577D01*
X175385099Y-105622434D01*
X175337480Y-105717672D01*
X175289860Y-105765291D01*
X175194622Y-105812910D01*
X174813670Y-105812910D01*
X176575575Y-105765291D02*
X176908908Y-105765291D01*
X177051765Y-106289100D02*
X176575575Y-106289100D01*
X176575575Y-105289100D01*
X177051765Y-105289100D01*
X177385099Y-105289100D02*
X178051765Y-106289100D01*
X178051765Y-105289100D02*
X177385099Y-106289100D01*
X178289860Y-105289100D02*
X178861289Y-105289100D01*
X178575575Y-106289100D02*
X178575575Y-105289100D01*
X179194622Y-105765291D02*
X179527956Y-105765291D01*
X179670813Y-106289100D02*
X179194622Y-106289100D01*
X179194622Y-105289100D01*
X179670813Y-105289100D01*
X180099384Y-106289100D02*
X180099384Y-105289100D01*
X180670813Y-106289100D01*
X180670813Y-105289100D01*
X181147003Y-106289100D02*
X181147003Y-105289100D01*
X181385099Y-105289100D01*
X181527956Y-105336720D01*
X181623194Y-105431958D01*
X181670813Y-105527196D01*
X181718432Y-105717672D01*
X181718432Y-105860529D01*
X181670813Y-106051005D01*
X181623194Y-106146243D01*
X181527956Y-106241481D01*
X181385099Y-106289100D01*
X181147003Y-106289100D01*
X182147003Y-105765291D02*
X182480337Y-105765291D01*
X182623194Y-106289100D02*
X182147003Y-106289100D01*
X182147003Y-105289100D01*
X182623194Y-105289100D01*
X183623194Y-106289100D02*
X183289860Y-105812910D01*
X183051765Y-106289100D02*
X183051765Y-105289100D01*
X183432718Y-105289100D01*
X183527956Y-105336720D01*
X183575575Y-105384339D01*
X183623194Y-105479577D01*
X183623194Y-105622434D01*
X183575575Y-105717672D01*
X183527956Y-105765291D01*
X183432718Y-105812910D01*
X183051765Y-105812910D01*
X184670813Y-105289100D02*
X185004146Y-106289100D01*
X185337480Y-105289100D01*
X186194622Y-106289100D02*
X185623194Y-106289100D01*
X185908908Y-106289100D02*
X185908908Y-105289100D01*
X185813670Y-105431958D01*
X185718432Y-105527196D01*
X185623194Y-105574815D01*
X186575575Y-106003386D02*
X187051765Y-106003386D01*
X186480337Y-106289100D02*
X186813670Y-105289100D01*
X187147003Y-106289100D01*
D11*
%TO.C,J2*%
X188052900Y-95325000D02*
G75*
G03*
X188052900Y-95325000I-100000J0D01*
G01*
X191355000Y-96405000D02*
X191355000Y-101775000D01*
X191355000Y-103645000D02*
X188450000Y-103645000D01*
X188450000Y-96405000D02*
X191355000Y-96405000D01*
X172960000Y-103645000D02*
X168440000Y-103645000D01*
X172960000Y-96405000D02*
X168440000Y-96405000D01*
X150045000Y-101775000D02*
X150045000Y-96405000D01*
X150045000Y-96405000D02*
X152950000Y-96405000D01*
X152950000Y-103645000D02*
X150045000Y-103645000D01*
D10*
X189498646Y-94565220D02*
X189498646Y-95279506D01*
X189451027Y-95422363D01*
X189355789Y-95517601D01*
X189212932Y-95565220D01*
X189117694Y-95565220D01*
X189927218Y-94660459D02*
X189974837Y-94612840D01*
X190070075Y-94565220D01*
X190308170Y-94565220D01*
X190403408Y-94612840D01*
X190451027Y-94660459D01*
X190498646Y-94755697D01*
X190498646Y-94850935D01*
X190451027Y-94993792D01*
X189879599Y-95565220D01*
X190498646Y-95565220D01*
%TO.C,H2*%
X209938095Y-96277380D02*
X209938095Y-95277380D01*
X209938095Y-95753571D02*
X210509523Y-95753571D01*
X210509523Y-96277380D02*
X210509523Y-95277380D01*
X210938095Y-95372619D02*
X210985714Y-95325000D01*
X211080952Y-95277380D01*
X211319047Y-95277380D01*
X211414285Y-95325000D01*
X211461904Y-95372619D01*
X211509523Y-95467857D01*
X211509523Y-95563095D01*
X211461904Y-95705952D01*
X210890476Y-96277380D01*
X211509523Y-96277380D01*
%TO.C,H1*%
X129938095Y-96277380D02*
X129938095Y-95277380D01*
X129938095Y-95753571D02*
X130509523Y-95753571D01*
X130509523Y-96277380D02*
X130509523Y-95277380D01*
X131509523Y-96277380D02*
X130938095Y-96277380D01*
X131223809Y-96277380D02*
X131223809Y-95277380D01*
X131128571Y-95420238D01*
X131033333Y-95515476D01*
X130938095Y-95563095D01*
%TD*%
M02*
